<?xml version="1.0" encoding="UTF-8" standalone="no"?>
<!DOCTYPE svg PUBLIC "-//W3C//DTD SVG 1.1//EN" "http://www.w3.org/Graphics/SVG/1.1/DTD/svg11.dtd">
<svg width="100%" height="100%" viewBox="0 0 81 122" version="1.1" xmlns="http://www.w3.org/2000/svg" xmlns:xlink="http://www.w3.org/1999/xlink" xml:space="preserve" xmlns:serif="http://www.serif.com/" style="fill-rule:evenodd;clip-rule:evenodd;stroke-linejoin:round;stroke-miterlimit:2;">
    <g transform="matrix(1,0,0,1,-3363.04,-930.451)">
        <g transform="matrix(9.9786,0,0,9.9786,1661.24,-2519.62)">
            <g transform="matrix(0.563851,7.825e-18,-7.825e-18,0.563851,91.0798,-13.4668)">
                <g transform="matrix(0.200398,-2.78108e-18,2.78108e-18,0.200398,122.405,636.883)">
                    <path d="M127.179,2.51C109.051,2.937 94.309,17.795 94.016,35.926C93.862,45.461 97.636,54.111 103.825,60.372C107.424,64.014 109.536,68.867 109.88,73.976L109.912,74.455C110.187,78.537 113.578,81.708 117.669,81.708L138.329,81.708C142.42,81.708 145.812,78.537 146.087,74.455C146.446,69.118 148.613,64.029 152.346,60.198C158.312,54.076 161.988,45.713 161.988,36.489C161.988,17.444 146.326,2.058 127.179,2.51Z" style="fill:none;fill-rule:nonzero;stroke:rgb(199,40,28);stroke-width:3.1px;"/>
                </g>
                <g transform="matrix(0.200398,-2.78108e-18,2.78108e-18,0.200398,122.405,636.883)">
                    <path d="M138.33,81.708L117.67,81.708C116.402,81.708 115.202,81.402 114.141,80.861L114.141,91.386C114.141,94.649 116.786,97.293 120.049,97.293L135.953,97.293C139.216,97.293 141.86,94.648 141.86,91.386L141.86,80.86C140.798,81.402 139.598,81.708 138.33,81.708Z" style="fill:rgb(199,40,28);fill-rule:nonzero;"/>
                </g>
                <g transform="matrix(0.200398,-2.78108e-18,2.78108e-18,0.200398,122.405,636.883)">
                    <path d="M135.952,97.292L120.048,97.292C119.478,97.292 118.929,97.207 118.407,97.056L118.407,102.154C118.407,105.654 121.244,108.491 124.744,108.491L131.255,108.491C134.755,108.491 137.592,105.654 137.592,102.154L137.592,97.056C137.071,97.207 136.522,97.292 135.952,97.292Z" style="fill:rgb(199,40,28);fill-rule:nonzero;"/>
                </g>
            </g>
        </g>
    </g>
</svg>
