<?xml version="1.0" encoding="UTF-8" standalone="no"?>
<!DOCTYPE svg PUBLIC "-//W3C//DTD SVG 1.1//EN" "http://www.w3.org/Graphics/SVG/1.1/DTD/svg11.dtd">
<svg width="100%" height="100%" viewBox="0 0 126 126" version="1.1" xmlns="http://www.w3.org/2000/svg" xmlns:xlink="http://www.w3.org/1999/xlink" xml:space="preserve" xmlns:serif="http://www.serif.com/" style="fill-rule:evenodd;clip-rule:evenodd;stroke-linejoin:round;stroke-miterlimit:2;">
    <g transform="matrix(1,0,0,1,-2430.85,-930.387)">
        <g transform="matrix(9.9786,0,0,9.9786,1661.24,-2519.62)">
            <g transform="matrix(0.4831,0,0,0.4831,86.5949,350.267)">
                <path d="M0,7.356C-2.03,10.975 -6.611,12.26 -10.23,10.23C-13.848,8.199 -15.135,3.619 -13.104,0.001C-11.072,-3.618 -6.492,-4.905 -2.874,-2.873C0.744,-0.842 2.031,3.738 0,7.356M1.612,-6.612L-2.019,-8.649L-3.502,-6.471C-4.695,-6.832 -5.918,-6.97 -7.129,-6.903L-8.057,-9.37L-12.062,-8.245L-11.569,-5.656C-12.637,-5.082 -13.609,-4.329 -14.44,-3.399L-16.842,-4.485L-18.879,-0.855L-16.701,0.628C-17.061,1.819 -17.2,3.045 -17.134,4.255L-19.6,5.183L-18.475,9.188L-15.886,8.696C-15.313,9.764 -14.559,10.736 -13.628,11.567L-14.715,13.968L-11.085,16.005L-9.601,13.829C-8.412,14.187 -7.185,14.327 -5.975,14.26L-5.046,16.726L-1.042,15.601L-1.533,13.012C-0.467,12.439 0.509,11.681 1.337,10.755L3.738,11.842L5.775,8.211L3.598,6.727C3.959,5.535 4.097,4.311 4.029,3.102L6.496,2.173L5.371,-1.832L2.782,-1.339C2.209,-2.407 1.451,-3.382 0.525,-4.21L1.612,-6.612Z" style="fill:rgb(199,40,28);fill-rule:nonzero;"/>
            </g>
        </g>
    </g>
</svg>
