<?xml version="1.0" encoding="UTF-8" standalone="no"?>
<!DOCTYPE svg PUBLIC "-//W3C//DTD SVG 1.1//EN" "http://www.w3.org/Graphics/SVG/1.1/DTD/svg11.dtd">
<svg width="100%" height="100%" viewBox="0 0 105 114" version="1.1" xmlns="http://www.w3.org/2000/svg" xmlns:xlink="http://www.w3.org/1999/xlink" xml:space="preserve" xmlns:serif="http://www.serif.com/" style="fill-rule:evenodd;clip-rule:evenodd;stroke-linejoin:round;stroke-miterlimit:2;">
    <g transform="matrix(1,0,0,1,-2604.96,-1446.89)">
        <g transform="matrix(9.9786,0,0,9.9786,1661.24,-2519.62)">
            <g transform="matrix(0.688274,-2.23366e-32,1.82754e-32,0.688274,-1388.67,-46.3211)">
                <g transform="matrix(0.227615,7.38681e-33,-6.04376e-33,0.227615,1458.07,439.956)">
                    <path d="M3095.24,972.907C3079.47,972.686 3067.35,963.768 3061.94,958.69C3061.96,958.577 3061.96,958.537 3061.99,958.446C3066.34,944.033 3079.75,933.621 3095.51,933.713L3096.05,933.722C3111.8,934.065 3124.92,944.833 3128.85,959.373L3128.06,960.162C3119.49,968.212 3107.91,973.078 3095.24,972.907Z" style="fill:rgb(199,40,28);fill-rule:nonzero;"/>
                </g>
                <g transform="matrix(0.0138627,-0.999904,-0.999904,-0.0138627,2162.87,644.836)">
                    <path d="M-3.354,-3.307C-5.206,-3.308 -6.708,-1.806 -6.708,0.046C-6.708,1.9 -5.207,3.401 -3.354,3.401C-1.501,3.402 0.001,1.9 0.001,0.048C0.001,-1.806 -1.5,-3.308 -3.354,-3.307Z" style="fill:rgb(199,40,28);"/>
                </g>
            </g>
        </g>
    </g>
</svg>
