<?xml version="1.0" encoding="UTF-8" standalone="no"?>
<!DOCTYPE svg PUBLIC "-//W3C//DTD SVG 1.1//EN" "http://www.w3.org/Graphics/SVG/1.1/DTD/svg11.dtd">
<svg width="100%" height="100%" viewBox="0 0 115 115" version="1.1" xmlns="http://www.w3.org/2000/svg" xmlns:xlink="http://www.w3.org/1999/xlink" xml:space="preserve" xmlns:serif="http://www.serif.com/" style="fill-rule:evenodd;clip-rule:evenodd;stroke-linejoin:round;stroke-miterlimit:2;">
    <g transform="matrix(1,0,0,1,-2884.66,-599.128)">
        <g transform="matrix(9.9786,0,0,9.9786,1661.24,-2519.62)">
            <g transform="matrix(0.564754,7.83754e-18,-7.83754e-18,0.564754,45.8029,-12.1726)">
                <g transform="matrix(0.214978,-2.98341e-18,2.98341e-18,0.214978,-567.765,530.18)">
                    <path d="M3363.17,238.544C3365.25,243.691 3366.41,249.299 3366.45,255.163C3366.62,280.356 3346.27,300.995 3321.08,301.177L3320.75,301.177C3295.74,301.177 3275.24,280.821 3275.07,255.804C3274.89,230.611 3295.24,209.976 3320.44,209.79C3330.91,209.79 3340.55,213.266 3348.28,219.111" style="fill:none;fill-rule:nonzero;stroke:rgb(199,40,28);stroke-width:2.89px;"/>
                </g>
                <g transform="matrix(1,6.16298e-33,-6.16298e-33,1,146.569,575.405)">
                    <path d="M0,15.807C-0.714,15.769 -2.282,15.159 -6.496,9.288C-6.926,8.688 -6.789,7.852 -6.189,7.421C-5.589,6.991 -4.753,7.128 -4.322,7.728C-2.963,9.62 -1.218,11.762 -0.206,12.71C1.65,9.66 7.002,1.214 7.262,0.804C7.658,0.181 8.483,-0.005 9.108,0.391C9.732,0.786 9.917,1.613 9.521,2.238C7.503,5.421 2.14,13.913 1.575,14.95C1.302,15.45 0.803,15.768 0.24,15.803C0.171,15.807 0.093,15.812 0,15.807" style="fill:rgb(199,40,28);fill-rule:nonzero;"/>
                </g>
            </g>
        </g>
    </g>
</svg>
