<svg width="1" height="1" viewBox="0 0 1 1" fill="none" xmlns="http://www.w3.org/2000/svg">
<g clip-path="url(#clip0_226_41)">
<path d="M0.521727 0.640351H0.478493L0.440851 0.774211C0.455882 0.799883 0.471461 0.822226 0.486898 0.838039C0.486898 0.83807 0.486899 0.83807 0.48693 0.83807C0.491586 0.842836 0.496242 0.847023 0.500867 0.850523C0.504179 0.848023 0.507524 0.845164 0.510852 0.841977C0.527555 0.826086 0.544508 0.802179 0.560789 0.774383L0.521727 0.640351ZM0.521727 0.640351H0.478493L0.440851 0.774211C0.455882 0.799883 0.471461 0.822226 0.486898 0.838039C0.486898 0.83807 0.486899 0.83807 0.48693 0.83807C0.491586 0.842836 0.496242 0.847023 0.500867 0.850523C0.504179 0.848023 0.507524 0.845164 0.510852 0.841977C0.527555 0.826086 0.544508 0.802179 0.560789 0.774383L0.521727 0.640351ZM0.521727 0.640351H0.478493L0.440851 0.774211C0.455882 0.799883 0.471461 0.822226 0.486898 0.838039C0.486898 0.83807 0.486899 0.83807 0.48693 0.83807C0.491586 0.842836 0.496242 0.847023 0.500867 0.850523C0.504179 0.848023 0.507524 0.845164 0.510852 0.841977C0.527555 0.826086 0.544508 0.802179 0.560789 0.774383L0.521727 0.640351ZM0.521727 0.640351H0.478493L0.440851 0.774211C0.455882 0.799883 0.471461 0.822226 0.486898 0.838039C0.486898 0.83807 0.486899 0.83807 0.48693 0.83807C0.491586 0.842836 0.496242 0.847023 0.500867 0.850523C0.504179 0.848023 0.507524 0.845164 0.510852 0.841977C0.527555 0.826086 0.544508 0.802179 0.560789 0.774383L0.521727 0.640351ZM0.521727 0.640351H0.478493L0.440851 0.774211C0.455882 0.799883 0.471461 0.822226 0.486898 0.838039C0.486898 0.83807 0.486899 0.83807 0.48693 0.83807C0.491586 0.842836 0.496242 0.847023 0.500867 0.850523C0.504179 0.848023 0.507524 0.845164 0.510852 0.841977C0.527555 0.826086 0.544508 0.802179 0.560789 0.774383L0.521727 0.640351ZM0.521727 0.640351H0.478493L0.440851 0.774211C0.455882 0.799883 0.471461 0.822226 0.486898 0.838039C0.486898 0.83807 0.486899 0.83807 0.48693 0.83807C0.491586 0.842836 0.496242 0.847023 0.500867 0.850523C0.504179 0.848023 0.507524 0.845164 0.510852 0.841977C0.527555 0.826086 0.544508 0.802179 0.560789 0.774383L0.521727 0.640351ZM0.521727 0.640351H0.478493L0.440851 0.774211C0.455882 0.799883 0.471461 0.822226 0.486898 0.838039C0.486898 0.83807 0.486899 0.83807 0.48693 0.83807C0.491586 0.842836 0.496242 0.847023 0.500867 0.850523C0.504179 0.848023 0.507524 0.845164 0.510852 0.841977C0.527555 0.826086 0.544508 0.802179 0.560789 0.774383L0.521727 0.640351ZM0.521727 0.640351H0.478493L0.440851 0.774211C0.455882 0.799883 0.471461 0.822226 0.486898 0.838039C0.486898 0.83807 0.486899 0.83807 0.48693 0.83807C0.491586 0.842836 0.496242 0.847023 0.500867 0.850523C0.504179 0.848023 0.507524 0.845164 0.510852 0.841977C0.527555 0.826086 0.544508 0.802179 0.560789 0.774383L0.521727 0.640351ZM0.521727 0.640351H0.478493L0.440851 0.774211C0.455882 0.799883 0.471461 0.822226 0.486898 0.838039C0.486898 0.83807 0.486899 0.83807 0.48693 0.83807C0.491586 0.842836 0.496242 0.847023 0.500867 0.850523C0.504179 0.848023 0.507524 0.845164 0.510852 0.841977C0.527555 0.826086 0.544508 0.802179 0.560789 0.774383L0.521727 0.640351ZM0.445024 0.589273L0.457352 0.621351C0.456914 0.622164 0.456555 0.623039 0.456305 0.623961L0.423118 0.741945V0.741961C0.426024 0.747539 0.428961 0.753008 0.431914 0.758399V0.758414C0.434883 0.763789 0.437836 0.76907 0.440851 0.774211C0.455882 0.799883 0.471461 0.822226 0.486898 0.838039C0.486898 0.83807 0.486899 0.83807 0.48693 0.83807C0.491586 0.842836 0.496242 0.847023 0.500867 0.850523C0.504179 0.848023 0.507524 0.845164 0.510852 0.841977C0.527555 0.826086 0.544508 0.802179 0.560789 0.774383C0.563773 0.769289 0.566727 0.764055 0.569664 0.758727C0.572586 0.753398 0.575492 0.747961 0.578367 0.742445L0.543805 0.623851C0.543664 0.623351 0.543477 0.622867 0.543274 0.622398L0.556227 0.587367C0.59157 0.576945 0.619476 0.560054 0.630664 0.552664C0.639726 0.552867 0.648617 0.553523 0.657336 0.554648C0.663571 0.555414 0.669696 0.556445 0.675727 0.55768C0.681821 0.55893 0.68782 0.560414 0.693695 0.562133C0.686289 0.583914 0.666945 0.63882 0.640476 0.69832C0.624336 0.734555 0.608476 0.76593 0.592945 0.792414C0.584101 0.807445 0.575398 0.820883 0.566773 0.832726C0.547211 0.859664 0.528211 0.878383 0.509883 0.888633L0.500867 0.893711L0.491852 0.888633C0.472727 0.877945 0.452867 0.858054 0.432383 0.829195L0.432367 0.82918C0.424649 0.818258 0.416805 0.806054 0.408883 0.79257V0.792554C0.393305 0.766039 0.377398 0.734617 0.361258 0.69832C0.334351 0.637867 0.314805 0.582148 0.30768 0.561101C0.313586 0.559492 0.319618 0.558102 0.325743 0.556945C0.331805 0.555805 0.337992 0.554867 0.344242 0.55418C0.351539 0.553367 0.358961 0.552867 0.366508 0.55268C0.378039 0.561055 0.406133 0.579273 0.445024 0.589273ZM0.637133 0.53443C0.633133 0.534273 0.629117 0.53418 0.625054 0.53418C0.625054 0.53418 0.618711 0.53882 0.607852 0.54507C0.606977 0.545586 0.606023 0.546117 0.60507 0.546664C0.593836 0.552961 0.578492 0.560539 0.560679 0.566633C0.542101 0.573008 0.520883 0.577742 0.498852 0.577742C0.477149 0.577742 0.457367 0.574024 0.440227 0.568742C0.41943 0.562367 0.402524 0.553726 0.390821 0.546664C0.390055 0.546195 0.389273 0.545711 0.388555 0.545273C0.378305 0.538914 0.372648 0.53418 0.372648 0.53418C0.368258 0.53418 0.363914 0.534273 0.359602 0.534476C0.287461 0.537804 0.227102 0.568633 0.184071 0.616789C0.138461 0.667851 0.112305 0.738367 0.112305 0.816257V0.920945C0.112305 0.953867 0.139008 0.98057 0.171946 0.98057H0.825789C0.858711 0.98057 0.885399 0.953867 0.885399 0.920945V0.816257C0.885399 0.664523 0.786242 0.540773 0.637133 0.53443ZM0.521727 0.640351H0.478493L0.440851 0.774211C0.455882 0.799883 0.471461 0.822226 0.486898 0.838039C0.486898 0.83807 0.486899 0.83807 0.48693 0.83807C0.491586 0.842836 0.496242 0.847023 0.500867 0.850523C0.504179 0.848023 0.507524 0.845164 0.510852 0.841977C0.527555 0.826086 0.544508 0.802179 0.560789 0.774383L0.521727 0.640351ZM0.521727 0.640351H0.478493L0.440851 0.774211C0.455882 0.799883 0.471461 0.822226 0.486898 0.838039C0.486898 0.83807 0.486899 0.83807 0.48693 0.83807C0.491586 0.842836 0.496242 0.847023 0.500867 0.850523C0.504179 0.848023 0.507524 0.845164 0.510852 0.841977C0.527555 0.826086 0.544508 0.802179 0.560789 0.774383L0.521727 0.640351ZM0.521727 0.640351H0.478493L0.440851 0.774211C0.455882 0.799883 0.471461 0.822226 0.486898 0.838039C0.486898 0.83807 0.486899 0.83807 0.48693 0.83807C0.491586 0.842836 0.496242 0.847023 0.500867 0.850523C0.504179 0.848023 0.507524 0.845164 0.510852 0.841977C0.527555 0.826086 0.544508 0.802179 0.560789 0.774383L0.521727 0.640351ZM0.521727 0.640351H0.478493L0.440851 0.774211C0.455882 0.799883 0.471461 0.822226 0.486898 0.838039C0.486898 0.83807 0.486899 0.83807 0.48693 0.83807C0.491586 0.842836 0.496242 0.847023 0.500867 0.850523C0.504179 0.848023 0.507524 0.845164 0.510852 0.841977C0.527555 0.826086 0.544508 0.802179 0.560789 0.774383L0.521727 0.640351ZM0.521727 0.640351H0.478493L0.440851 0.774211C0.455882 0.799883 0.471461 0.822226 0.486898 0.838039C0.486898 0.83807 0.486899 0.83807 0.48693 0.83807C0.491586 0.842836 0.496242 0.847023 0.500867 0.850523C0.504179 0.848023 0.507524 0.845164 0.510852 0.841977C0.527555 0.826086 0.544508 0.802179 0.560789 0.774383L0.521727 0.640351ZM0.521727 0.640351H0.478493L0.440851 0.774211C0.455882 0.799883 0.471461 0.822226 0.486898 0.838039C0.486898 0.83807 0.486899 0.83807 0.48693 0.83807C0.491586 0.842836 0.496242 0.847023 0.500867 0.850523C0.504179 0.848023 0.507524 0.845164 0.510852 0.841977C0.527555 0.826086 0.544508 0.802179 0.560789 0.774383L0.521727 0.640351ZM0.521727 0.640351H0.478493L0.440851 0.774211C0.455882 0.799883 0.471461 0.822226 0.486898 0.838039C0.486898 0.83807 0.486899 0.83807 0.48693 0.83807C0.491586 0.842836 0.496242 0.847023 0.500867 0.850523C0.504179 0.848023 0.507524 0.845164 0.510852 0.841977C0.527555 0.826086 0.544508 0.802179 0.560789 0.774383L0.521727 0.640351ZM0.521727 0.640351H0.478493L0.440851 0.774211C0.455882 0.799883 0.471461 0.822226 0.486898 0.838039C0.486898 0.83807 0.486899 0.83807 0.48693 0.83807C0.491586 0.842836 0.496242 0.847023 0.500867 0.850523C0.504179 0.848023 0.507524 0.845164 0.510852 0.841977C0.527555 0.826086 0.544508 0.802179 0.560789 0.774383L0.521727 0.640351ZM0.521727 0.640351H0.478493L0.440851 0.774211C0.455882 0.799883 0.471461 0.822226 0.486898 0.838039C0.486898 0.83807 0.486899 0.83807 0.48693 0.83807C0.491586 0.842836 0.496242 0.847023 0.500867 0.850523C0.504179 0.848023 0.507524 0.845164 0.510852 0.841977C0.527555 0.826086 0.544508 0.802179 0.560789 0.774383L0.521727 0.640351ZM0.521727 0.640351H0.478493L0.440851 0.774211C0.455882 0.799883 0.471461 0.822226 0.486898 0.838039C0.486898 0.83807 0.486899 0.83807 0.48693 0.83807C0.491586 0.842836 0.496242 0.847023 0.500867 0.850523C0.504179 0.848023 0.507524 0.845164 0.510852 0.841977C0.527555 0.826086 0.544508 0.802179 0.560789 0.774383L0.521727 0.640351Z" fill="#B22317"/>
<path d="M0.569634 0.758235C0.566697 0.763563 0.563744 0.768797 0.56076 0.77389C0.544478 0.801687 0.527525 0.825594 0.510822 0.841485C0.507494 0.844672 0.50415 0.847531 0.500837 0.850031C0.496212 0.846531 0.491557 0.842344 0.4869 0.837578C0.486869 0.837578 0.486869 0.837578 0.486869 0.837547C0.471431 0.821734 0.455853 0.799391 0.440822 0.773719C0.437806 0.768578 0.434854 0.763297 0.431885 0.757922V0.757906L0.46801 0.629406L0.468698 0.626953H0.531384L0.532104 0.629406L0.569634 0.758235Z" fill="#B22317"/>
<path d="M0.501944 0.84457L0.501866 0.844554C0.498553 0.844273 0.493257 0.841789 0.486772 0.837789C0.491428 0.842555 0.496084 0.846742 0.500709 0.850242C0.504022 0.847742 0.507366 0.844883 0.510694 0.841695C0.507069 0.843539 0.504085 0.84457 0.501944 0.84457ZM0.594084 0.796648L0.592787 0.792133C0.583944 0.807164 0.575241 0.820601 0.566616 0.832445C0.577256 0.823039 0.5861 0.814242 0.590944 0.809273C0.594178 0.805945 0.595397 0.801101 0.594084 0.796648ZM0.501944 0.84457L0.501866 0.844554C0.498553 0.844273 0.493257 0.841789 0.486772 0.837789C0.491428 0.842555 0.496084 0.846742 0.500709 0.850242C0.504022 0.847742 0.507366 0.844883 0.510694 0.841695C0.507069 0.843539 0.504085 0.84457 0.501944 0.84457ZM0.408725 0.792289L0.40746 0.796758C0.406179 0.801351 0.407522 0.806289 0.410944 0.809586C0.415334 0.813789 0.422991 0.82093 0.43221 0.828898C0.424491 0.817977 0.416647 0.805773 0.408725 0.792289ZM0.501944 0.84457L0.501866 0.844554C0.498553 0.844273 0.493257 0.841789 0.486772 0.837789C0.491428 0.842555 0.496084 0.846742 0.500709 0.850242C0.504022 0.847742 0.507366 0.844883 0.510694 0.841695C0.507069 0.843539 0.504085 0.84457 0.501944 0.84457ZM0.501944 0.84457L0.501866 0.844554C0.498553 0.844273 0.493257 0.841789 0.486772 0.837789C0.491428 0.842555 0.496084 0.846742 0.500709 0.850242C0.504022 0.847742 0.507366 0.844883 0.510694 0.841695C0.507069 0.843539 0.504085 0.84457 0.501944 0.84457ZM0.501944 0.84457L0.501866 0.844554C0.498553 0.844273 0.493257 0.841789 0.486772 0.837789C0.491428 0.842555 0.496084 0.846742 0.500709 0.850242C0.504022 0.847742 0.507366 0.844883 0.510694 0.841695C0.507069 0.843539 0.504085 0.84457 0.501944 0.84457ZM0.543647 0.62357C0.543507 0.62307 0.543319 0.622586 0.543116 0.622117C0.541726 0.618851 0.539084 0.616352 0.535865 0.615133C0.534428 0.614555 0.532881 0.614258 0.531256 0.614258H0.468569C0.467226 0.614258 0.465928 0.614461 0.464694 0.614867H0.464678C0.461491 0.615867 0.458803 0.618101 0.457194 0.62107C0.456756 0.621882 0.456397 0.622758 0.456147 0.62368L0.42296 0.741664V0.74168C0.425866 0.747258 0.428803 0.752727 0.431757 0.758117V0.758132C0.434725 0.763507 0.437678 0.768789 0.440693 0.77393L0.478335 0.64007H0.521569L0.560631 0.774101C0.563616 0.769008 0.566569 0.763773 0.569506 0.758445C0.572428 0.753117 0.575334 0.747679 0.578209 0.742164L0.543647 0.62357ZM0.501944 0.84457L0.501866 0.844554C0.498553 0.844273 0.493257 0.841789 0.486772 0.837789C0.491428 0.842555 0.496084 0.846742 0.500709 0.850242C0.504022 0.847742 0.507366 0.844883 0.510694 0.841695C0.507069 0.843539 0.504085 0.84457 0.501944 0.84457ZM0.501944 0.84457L0.501866 0.844554C0.498553 0.844273 0.493257 0.841789 0.486772 0.837789C0.491428 0.842555 0.496084 0.846742 0.500709 0.850242C0.504022 0.847742 0.507366 0.844883 0.510694 0.841695C0.507069 0.843539 0.504085 0.84457 0.501944 0.84457ZM0.501944 0.84457L0.501866 0.844554C0.498553 0.844273 0.493257 0.841789 0.486772 0.837789C0.491428 0.842555 0.496084 0.846742 0.500709 0.850242C0.504022 0.847742 0.507366 0.844883 0.510694 0.841695C0.507069 0.843539 0.504085 0.84457 0.501944 0.84457ZM0.501944 0.84457L0.501866 0.844554C0.498553 0.844273 0.493257 0.841789 0.486772 0.837789C0.491428 0.842555 0.496084 0.846742 0.500709 0.850242C0.504022 0.847742 0.507366 0.844883 0.510694 0.841695C0.507069 0.843539 0.504085 0.84457 0.501944 0.84457ZM0.501944 0.84457L0.501866 0.844554C0.498553 0.844273 0.493257 0.841789 0.486772 0.837789C0.491428 0.842555 0.496084 0.846742 0.500709 0.850242C0.504022 0.847742 0.507366 0.844883 0.510694 0.841695C0.507069 0.843539 0.504085 0.84457 0.501944 0.84457Z" fill="#B22317"/>
<path d="M0.552471 0.570312L0.534033 0.620093H0.466924L0.448486 0.572156L0.498815 0.583625L0.552471 0.570312Z" fill="#B22317"/>
<path d="M0.534512 0.592495L0.527544 0.611307H0.4732L0.466356 0.593526L0.463231 0.585432L0.4967 0.593042C0.498106 0.59337 0.499574 0.593354 0.500965 0.59301L0.537699 0.583901L0.534512 0.592495ZM0.560574 0.566479C0.560215 0.565807 0.559793 0.565166 0.559277 0.564588C0.556996 0.562041 0.553512 0.560979 0.550184 0.561792L0.498653 0.574589L0.450481 0.563588C0.447137 0.562838 0.443699 0.563979 0.441465 0.566541C0.440934 0.567166 0.440481 0.567854 0.440121 0.568588C0.439028 0.570838 0.438903 0.573495 0.439825 0.575901L0.444918 0.58912L0.457247 0.621197L0.458262 0.623838C0.459622 0.627385 0.463059 0.629745 0.466872 0.629745H0.533965C0.537824 0.629745 0.541262 0.627354 0.542606 0.623713L0.543169 0.622245L0.556122 0.587213L0.561043 0.573932C0.561965 0.571463 0.561762 0.56876 0.560574 0.566479Z" fill="#B22317"/>
<path d="M0.619049 0.548685C0.610799 0.548685 0.603298 0.543122 0.601173 0.534763L0.578205 0.443873C0.575705 0.433998 0.581689 0.423967 0.591564 0.421467C0.601423 0.418967 0.611454 0.424951 0.613954 0.434826L0.636939 0.525717C0.639423 0.535592 0.633455 0.545623 0.62358 0.548123C0.622064 0.548498 0.620533 0.548685 0.619049 0.548685Z" fill="#B22317"/>
<path d="M0.37759 0.54868C0.37609 0.54868 0.374574 0.548492 0.373043 0.548117C0.363183 0.545617 0.357199 0.535586 0.359699 0.525711L0.382668 0.434821C0.385168 0.424946 0.395199 0.418977 0.405074 0.421461C0.414949 0.423961 0.420918 0.433993 0.418418 0.443868L0.395449 0.534758C0.393324 0.543117 0.385824 0.54868 0.37759 0.54868Z" fill="#B22317"/>
<path d="M0.49924 0.508312C0.452272 0.508312 0.408788 0.479578 0.376788 0.427422C0.346522 0.378078 0.329866 0.312844 0.329866 0.24375C0.329866 0.241703 0.329866 0.239656 0.329835 0.237641C0.329756 0.227453 0.337928 0.219125 0.348116 0.219047C0.358319 0.218891 0.366631 0.22714 0.366709 0.237312C0.366741 0.239437 0.366741 0.241594 0.366741 0.24375C0.366741 0.306125 0.381475 0.364515 0.408225 0.40814C0.433256 0.448953 0.465584 0.471437 0.49924 0.471437C0.532897 0.471437 0.565225 0.448953 0.590256 0.40814C0.617006 0.364515 0.631741 0.306125 0.631741 0.24375C0.631741 0.23889 0.631725 0.234156 0.631678 0.229516C0.6316 0.219328 0.639788 0.211016 0.649975 0.210938H0.650116C0.660241 0.210938 0.668475 0.219094 0.668553 0.229219C0.6686 0.233953 0.668616 0.238797 0.668616 0.24375C0.668616 0.312844 0.651944 0.378078 0.621678 0.427422C0.589694 0.479578 0.546209 0.508312 0.49924 0.508312Z" fill="#B22317"/>
<path d="M0.375661 0.049828C0.359333 0.0634218 0.300286 0.111594 0.342068 0.252047C0.342068 0.252047 0.380177 0.153297 0.421536 0.171937C0.475693 0.196359 0.485365 0.201047 0.536646 0.197578C0.60713 0.192812 0.638099 0.193062 0.661411 0.252047C0.661411 0.252047 0.703848 0.123281 0.625614 0.0545623C0.596708 0.0291717 0.553192 0.00865602 0.482911 0.0133748C0.442817 0.0160779 0.40763 0.023203 0.375661 0.049828Z" fill="#B22317"/>
<path d="M0.656454 0.215703C0.655282 0.214141 0.654125 0.212641 0.652922 0.211219C0.633813 0.188438 0.609406 0.183047 0.577547 0.183047C0.564578 0.183047 0.549781 0.183969 0.53575 0.184922C0.525813 0.185594 0.518141 0.185906 0.511578 0.185906C0.483391 0.185906 0.470735 0.180187 0.428751 0.161266L0.426828 0.160391C0.421687 0.158094 0.416344 0.156906 0.410922 0.156906C0.39075 0.156906 0.370782 0.172859 0.351563 0.204313C0.349516 0.207672 0.347594 0.211016 0.345797 0.214281C0.331782 0.144531 0.344453 0.0927968 0.383609 0.0602031L0.383891 0.0599687C0.412922 0.0357968 0.444829 0.029078 0.483766 0.0264843C0.490204 0.0260311 0.496562 0.0258124 0.502672 0.0258124C0.550047 0.0258124 0.587469 0.0384687 0.617078 0.0644844C0.663672 0.105391 0.662969 0.171547 0.656969 0.212312C0.656797 0.213469 0.656626 0.214594 0.656454 0.215703ZM0.634125 0.045078C0.599579 0.0147499 0.556594 0 0.502672 0C0.495984 0 0.489031 0.000250082 0.482031 0.000718832C0.443985 0.00326571 0.403782 0.00981239 0.367391 0.0401249L0.36711 0.0403593C0.358204 0.0477499 0.337375 0.0651093 0.324734 0.0996718C0.309531 0.141266 0.311203 0.193859 0.329656 0.255953C0.329813 0.256469 0.330016 0.256984 0.330219 0.257469V0.2575L0.330234 0.257516C0.33225 0.261922 0.336532 0.264953 0.341516 0.265156C0.347079 0.265375 0.352078 0.262078 0.354078 0.256906C0.357109 0.249063 0.361156 0.240234 0.365797 0.231469C0.378875 0.206812 0.396781 0.182719 0.410922 0.182719C0.412687 0.182719 0.414422 0.183109 0.416203 0.183922L0.418125 0.184781C0.461578 0.204391 0.477844 0.211719 0.511578 0.211719C0.518734 0.211719 0.526969 0.211391 0.5375 0.210672C0.554078 0.209547 0.566562 0.208859 0.577547 0.208859C0.602594 0.208859 0.619016 0.211891 0.632079 0.226453C0.638454 0.233578 0.644016 0.243422 0.649391 0.257C0.651344 0.261953 0.656094 0.265172 0.661391 0.265172H0.661766C0.664141 0.265094 0.666391 0.264375 0.668297 0.263156C0.670782 0.261594 0.672687 0.259203 0.673656 0.256297C0.6755 0.250719 0.717797 0.118594 0.634125 0.045078Z" fill="#B22317"/>
<path d="M0.866844 0.920828C0.866844 0.943531 0.84836 0.962016 0.825672 0.962016H0.171828C0.14911 0.962016 0.130625 0.943531 0.130625 0.920828V0.81614C0.130625 0.688203 0.202 0.589609 0.307563 0.560984C0.313469 0.559375 0.3195 0.557984 0.325625 0.556828C0.331688 0.555687 0.337875 0.55475 0.344125 0.554062C0.351422 0.55325 0.358843 0.55275 0.36639 0.552562C0.377921 0.560937 0.406016 0.579156 0.444906 0.589156C0.448422 0.590047 0.452031 0.590906 0.455734 0.591656C0.459203 0.592375 0.46275 0.593 0.466344 0.593562C0.47661 0.59514 0.487438 0.596062 0.498734 0.596062C0.511 0.596062 0.523016 0.594734 0.5345 0.592531C0.538125 0.591828 0.541703 0.591046 0.545203 0.590187C0.548906 0.589296 0.552531 0.588297 0.556109 0.58725C0.591453 0.576828 0.619359 0.559937 0.630547 0.552547C0.639609 0.55275 0.6485 0.553406 0.657219 0.554531C0.663453 0.555297 0.669578 0.556328 0.67561 0.557562C0.681703 0.558812 0.687703 0.560297 0.693578 0.562016C0.797109 0.591922 0.866844 0.689671 0.866844 0.81614V0.920828ZM0.827281 0.604391C0.778156 0.549422 0.709953 0.518171 0.634344 0.515765C0.631235 0.515671 0.628093 0.515625 0.624937 0.515625C0.621015 0.515625 0.617203 0.516875 0.614047 0.519172C0.613875 0.519312 0.608547 0.523156 0.5995 0.528437C0.590265 0.533812 0.577156 0.540671 0.561703 0.546546C0.543203 0.553562 0.521344 0.559187 0.498734 0.559187C0.473547 0.559187 0.451016 0.553546 0.432766 0.546546C0.417532 0.540718 0.405281 0.533906 0.396906 0.528656C0.388953 0.523656 0.384516 0.520031 0.384391 0.519938C0.381063 0.517156 0.376859 0.515625 0.372531 0.515625C0.369047 0.515625 0.365578 0.515672 0.362141 0.515812C0.286938 0.518437 0.219094 0.549656 0.170203 0.604391C0.120891 0.659562 0.09375 0.734765 0.09375 0.81614V0.920828C0.09375 0.963875 0.128766 0.99889 0.171828 0.99889H0.825672C0.868703 0.99889 0.903719 0.963875 0.903719 0.920828V0.81614C0.903719 0.734765 0.876578 0.659562 0.827281 0.604391Z" fill="#B22317"/>
</g>
<defs>
<clipPath id="clip0_226_41">
<rect width="1" height="1" fill="white"/>
</clipPath>
</defs>
</svg>
