<svg width="1" height="1" viewBox="0 0 1 1" fill="none" xmlns="http://www.w3.org/2000/svg">
<g clip-path="url(#clip0_227_107)">
<path d="M0.234572 0.595857C0.233253 0.595118 0.231818 0.594727 0.230325 0.594727C0.227224 0.594727 0.22434 0.596408 0.222804 0.599103L0.220238 0.603625C0.220224 0.60364 0.220224 0.603654 0.220209 0.603669L0.193688 0.65035C0.190963 0.655147 0.192644 0.661248 0.197427 0.663959L0.232833 0.684075L0.271151 0.61664L0.234572 0.595857Z" fill="white"/>
<path d="M0.160186 0.273717L0.103098 0.539717L0.071896 0.527485C0.0572583 0.52176 0.0491134 0.506456 0.0525337 0.491108L0.0972866 0.290412C0.0992142 0.281775 0.10449 0.274529 0.112113 0.270021C0.119765 0.265529 0.128635 0.264442 0.137128 0.266934L0.160186 0.273717Z" fill="white"/>
<path d="M0.793097 0.489271L0.776025 0.519272L0.616735 0.428388C0.609546 0.424286 0.600416 0.426793 0.596314 0.433982C0.592227 0.441141 0.59472 0.450286 0.601894 0.454402L0.760938 0.545155L0.735821 0.589373L0.576778 0.498619C0.569589 0.494518 0.560459 0.497025 0.556358 0.504199C0.552256 0.511373 0.554764 0.520532 0.561937 0.524634L0.720996 0.615387L0.695923 0.659474L0.536938 0.56875C0.529749 0.564648 0.520604 0.567141 0.516518 0.574329C0.512416 0.581503 0.514908 0.590663 0.522082 0.59475L0.681126 0.685503L0.663706 0.716185C0.661692 0.719764 0.658387 0.7223 0.654416 0.723387C0.650445 0.72446 0.646314 0.723938 0.642749 0.72188L0.541024 0.6633C0.540995 0.663286 0.540981 0.663286 0.540967 0.663286C0.540967 0.663271 0.540952 0.663272 0.540938 0.663257L0.471184 0.623619C0.471025 0.623532 0.470865 0.623402 0.470706 0.623329L0.421082 0.595126C0.415271 0.591822 0.408706 0.590083 0.402054 0.590083C0.389677 0.590083 0.378112 0.596069 0.370909 0.605909L0.333662 0.58475C0.327851 0.58146 0.321286 0.579721 0.314634 0.579721C0.304097 0.579721 0.294155 0.58404 0.286981 0.591402L0.2493 0.569982C0.243503 0.566677 0.236923 0.564938 0.230271 0.564938C0.219155 0.564938 0.208691 0.569764 0.201459 0.57788L0.125488 0.548127L0.183025 0.280083L0.204474 0.286388C0.204778 0.286474 0.205039 0.286547 0.205358 0.286619C0.220966 0.290199 0.237242 0.287851 0.251199 0.279967L0.37414 0.21046C0.383647 0.205068 0.395242 0.204605 0.40517 0.209185C0.405764 0.209475 0.406387 0.209692 0.40701 0.209895L0.429503 0.216851L0.381604 0.245098C0.370952 0.251388 0.363286 0.261402 0.359996 0.273344L0.327039 0.393431C0.319676 0.420315 0.333807 0.447967 0.359894 0.457735L0.379271 0.464982C0.393416 0.470286 0.409198 0.469344 0.422604 0.462416C0.43601 0.455503 0.445923 0.44317 0.449807 0.42859L0.473822 0.338054C0.475054 0.333388 0.478228 0.329402 0.482517 0.327141L0.523952 0.305286L0.787068 0.468228C0.787198 0.468301 0.787314 0.468387 0.787445 0.468445C0.794706 0.472648 0.797213 0.481982 0.793097 0.489271Z" fill="white"/>
<path d="M0.318948 0.610505C0.31763 0.609752 0.316209 0.609375 0.314717 0.609375C0.311601 0.609375 0.308731 0.611056 0.307194 0.613737L0.304919 0.617752C0.304818 0.61794 0.304731 0.618129 0.304629 0.618317L0.258789 0.698984L0.302862 0.724027L0.355557 0.631303L0.318948 0.610505Z" fill="white"/>
<path d="M0.80327 0.284796L0.859429 0.546375L0.785095 0.563506L0.792502 0.550477C0.793154 0.549723 0.793763 0.548926 0.79427 0.548042L0.819299 0.504013C0.831473 0.482578 0.824096 0.455085 0.802849 0.442621L0.532603 0.275288C0.532501 0.275216 0.532386 0.275158 0.53227 0.2751C0.532024 0.274955 0.531762 0.274825 0.53153 0.27468C0.531313 0.274578 0.531081 0.274476 0.530879 0.274375C0.530661 0.274273 0.530458 0.274187 0.530226 0.2741C0.529979 0.273998 0.529719 0.273911 0.529458 0.273824C0.52927 0.273766 0.529067 0.273694 0.528879 0.273636C0.528603 0.273563 0.528328 0.273491 0.528052 0.273433C0.527849 0.273389 0.527661 0.273346 0.527458 0.273303C0.527183 0.273245 0.526936 0.273215 0.526661 0.273186C0.526429 0.273143 0.526211 0.273129 0.525994 0.273114C0.525748 0.2731 0.525487 0.273085 0.525255 0.273056H0.524502C0.524284 0.273056 0.524067 0.273056 0.52385 0.273085C0.523574 0.2731 0.523284 0.273129 0.523009 0.273143C0.52282 0.273187 0.522618 0.273201 0.522429 0.27323C0.522154 0.273288 0.521864 0.273332 0.521589 0.273389C0.521386 0.273433 0.521183 0.273491 0.520994 0.273535C0.520734 0.273593 0.520487 0.273679 0.520212 0.273752C0.51998 0.273824 0.519762 0.273897 0.519545 0.273984C0.519313 0.274071 0.519096 0.274157 0.518893 0.274244C0.518617 0.27436 0.518342 0.274476 0.518082 0.274621C0.517966 0.274665 0.517864 0.274723 0.517748 0.274766L0.468719 0.300636C0.457067 0.306766 0.448429 0.317593 0.445053 0.330332L0.421023 0.420868C0.419299 0.427389 0.415038 0.43268 0.409052 0.435781C0.403052 0.438882 0.39627 0.439274 0.389951 0.436912L0.370574 0.429665C0.359066 0.425346 0.352835 0.413158 0.356081 0.401303L0.389052 0.281216C0.390255 0.276839 0.393081 0.273143 0.39698 0.270853L0.47385 0.225549L0.521212 0.199506C0.531661 0.193766 0.544559 0.193926 0.554791 0.19994L0.705748 0.289911C0.719139 0.297767 0.734921 0.300506 0.750182 0.297578C0.750414 0.297549 0.750647 0.297505 0.750878 0.297433L0.80327 0.284796Z" fill="white"/>
<path d="M0.910676 0.534204L0.882633 0.540668L0.826416 0.278842L0.854344 0.272103C0.871257 0.268711 0.887908 0.27961 0.891546 0.296509L0.934517 0.496712C0.93814 0.513523 0.92743 0.530349 0.910676 0.534204Z" fill="white"/>
<path d="M0.399658 0.77969L0.435078 0.799821C0.436614 0.800676 0.438267 0.801125 0.439992 0.801125C0.443586 0.801125 0.446919 0.799183 0.448687 0.796067L0.513353 0.682284L0.469237 0.657227L0.399658 0.77969Z" fill="white"/>
<path d="M0.406418 0.621248C0.405099 0.620494 0.403679 0.620117 0.402186 0.620117C0.39907 0.620117 0.396187 0.621784 0.394665 0.624479L0.329346 0.739451L0.373448 0.764508L0.443027 0.642045L0.406418 0.621248Z" fill="white"/>
<path d="M0.97033 0.560636L0.910054 0.573578C0.908634 0.573868 0.907213 0.574027 0.905807 0.574027C0.896532 0.574027 0.888213 0.567578 0.886198 0.558128L0.882604 0.541447L0.826387 0.279621L0.824677 0.271636C0.822329 0.260766 0.829242 0.2501 0.840097 0.247752L0.900387 0.234824C0.901807 0.23452 0.903228 0.234375 0.904604 0.234375C0.91388 0.234375 0.922213 0.240809 0.924242 0.250259L0.985764 0.536766C0.988083 0.547621 0.98117 0.558302 0.97033 0.560636Z" fill="white"/>
<path d="M0.161719 0.265762L0.160096 0.273298L0.103008 0.539298L0.100023 0.553226C0.0979796 0.562646 0.089661 0.569095 0.0803856 0.569095C0.0790088 0.569095 0.077589 0.568951 0.0761397 0.568646L0.0158785 0.555704C0.00502347 0.553371 -0.00188995 0.54269 0.000457872 0.531849L0.0621538 0.244385C0.0641973 0.234965 0.0725158 0.228516 0.0817912 0.228516C0.083197 0.228516 0.0845882 0.228646 0.086023 0.228965L0.146298 0.241907C0.157153 0.244226 0.164067 0.254922 0.161719 0.265762Z" fill="white"/>
</g>
<defs>
<clipPath id="clip0_227_107">
<rect width="1" height="1" fill="white"/>
</clipPath>
</defs>
</svg>
