<svg width="1" height="1" viewBox="0 0 1 1" fill="none" xmlns="http://www.w3.org/2000/svg">
<g clip-path="url(#clip0_227_81)">
<path d="M0.184076 0.592773H0.0310059V0.897072H0.184076V0.592773Z" fill="white"/>
<path d="M0.0455836 0.8834H0.169671V0.608084H0.0455836V0.8834ZM0.184162 0.912382H0.0310926C0.0230926 0.912382 0.0166016 0.905891 0.0166016 0.897891V0.593593C0.0166016 0.585593 0.0230926 0.579102 0.0310926 0.579102H0.184162C0.192162 0.579102 0.198653 0.585593 0.198653 0.593593V0.897891C0.198653 0.905891 0.192162 0.912382 0.184162 0.912382Z" fill="white"/>
<path d="M0.439935 0.516602H0.286865V0.897584H0.439935V0.516602Z" fill="white"/>
<path d="M0.301443 0.882936H0.425531V0.530935H0.301443V0.882936ZM0.440022 0.911918H0.286952C0.278952 0.911918 0.272461 0.905427 0.272461 0.897427V0.516444C0.272461 0.508444 0.278952 0.501953 0.286952 0.501953H0.440022C0.448022 0.501953 0.454513 0.508444 0.454513 0.516444V0.897427C0.454513 0.905427 0.448022 0.911918 0.440022 0.911918Z" fill="white"/>
<path d="M0.695794 0.439453H0.542725V0.89712H0.695794V0.439453Z" fill="white"/>
<path d="M0.557303 0.883448H0.681391V0.454764H0.557303V0.883448ZM0.695882 0.91243H0.542812C0.534812 0.91243 0.52832 0.905939 0.52832 0.897939V0.440272C0.52832 0.432272 0.534812 0.425781 0.542812 0.425781H0.695882C0.703882 0.425781 0.710373 0.432272 0.710373 0.440272V0.897939C0.710373 0.905939 0.703882 0.91243 0.695882 0.91243Z" fill="white"/>
<path d="M0.951655 0.363281H0.798584V0.897632H0.951655V0.363281Z" fill="white"/>
<path d="M0.813163 0.882984H0.937251V0.377615H0.813163V0.882984ZM0.951742 0.911966H0.798671C0.790671 0.911966 0.78418 0.905475 0.78418 0.897475V0.363124C0.78418 0.355124 0.790671 0.348633 0.798671 0.348633H0.951742C0.959759 0.348633 0.966233 0.355124 0.966233 0.363124V0.897475C0.966233 0.905475 0.959759 0.911966 0.951742 0.911966Z" fill="white"/>
<path d="M0.0310391 0.470706C0.0178286 0.470706 0.00558317 0.462197 0.00142528 0.448916C-0.00369753 0.432548 0.00542547 0.415127 0.0217939 0.410021L0.94118 0.122512C0.957531 0.117407 0.974969 0.126513 0.980092 0.142881C0.985197 0.15925 0.976075 0.17667 0.959706 0.181793L0.0403207 0.469284C0.0372506 0.470249 0.0341268 0.470706 0.0310391 0.470706Z" fill="white"/>
<path d="M0.904126 0.258616C0.898459 0.258616 0.892723 0.257073 0.887582 0.253827C0.873091 0.244669 0.86874 0.225493 0.877898 0.210985L0.905091 0.167915L0.852372 0.148002C0.836319 0.14195 0.828231 0.12402 0.834284 0.107985C0.840354 0.0919496 0.858266 0.0838442 0.874318 0.0898968L0.962634 0.123265C0.971353 0.126564 0.978144 0.133599 0.981109 0.142441C0.984073 0.151283 0.982898 0.161002 0.977915 0.16888L0.930424 0.244143C0.924511 0.253494 0.914442 0.258616 0.904126 0.258616Z" fill="white"/>
</g>
<defs>
<clipPath id="clip0_227_81">
<rect width="1" height="1" fill="white"/>
</clipPath>
</defs>
</svg>
