<svg width="1" height="1" viewBox="0 0 1 1" fill="none" xmlns="http://www.w3.org/2000/svg">
<g clip-path="url(#clip0_227_134)">
<path d="M0.534627 0.286137C0.529075 0.286672 0.5233 0.287292 0.517334 0.288068V0.258067C0.517334 0.24405 0.526334 0.231792 0.539696 0.227567L0.609334 0.205584C0.612455 0.204619 0.615679 0.204102 0.618954 0.204102H0.670334C0.67049 0.204102 0.670662 0.204102 0.670834 0.204136C0.67161 0.204154 0.673972 0.204171 0.676576 0.204188C0.680852 0.204257 0.683748 0.204274 0.685248 0.204309C0.684834 0.210119 0.684352 0.21586 0.6838 0.221567C0.679507 0.265257 0.671437 0.303895 0.671437 0.303895C0.671437 0.303895 0.645179 0.284119 0.575351 0.284102C0.563144 0.284102 0.54961 0.284723 0.534627 0.286137Z" fill="white"/>
<path d="M0.637855 0.326341L0.534424 0.392273V0.3206C0.548734 0.319117 0.562338 0.318359 0.575148 0.318359C0.605734 0.318359 0.625959 0.3226 0.637855 0.326341Z" fill="white"/>
<path d="M0.908792 0.38053C0.907913 0.38053 0.907 0.380443 0.906086 0.380288C0.8705 0.373805 0.835207 0.371185 0.801327 0.371185C0.706948 0.371185 0.62362 0.391616 0.576172 0.406219L0.689465 0.334013C0.690482 0.333375 0.69143 0.332633 0.692241 0.331823C0.692241 0.331823 0.692258 0.331806 0.692275 0.331806C0.698931 0.326616 0.703379 0.318719 0.705172 0.310115C0.705534 0.308426 0.713741 0.26884 0.718138 0.223633C0.8455 0.240391 0.900879 0.31772 0.921793 0.359289C0.926793 0.369237 0.91931 0.38053 0.908792 0.38053Z" fill="white"/>
<path d="M0.304645 0.103994C0.307628 0.102167 0.310645 0.100357 0.31368 0.0986328V0.360184C0.310214 0.360184 0.306784 0.359133 0.303853 0.357116C0.299181 0.353874 0.296387 0.348564 0.296387 0.342891V0.118753C0.296387 0.112736 0.299525 0.10715 0.304645 0.103994Z" fill="white"/>
<path d="M0.685989 0.186808C0.685782 0.192532 0.685489 0.198308 0.685075 0.204084C0.684662 0.209894 0.684179 0.215635 0.683627 0.221342C0.679334 0.265032 0.671265 0.30367 0.671265 0.30367C0.671265 0.30367 0.645006 0.283894 0.575178 0.283877C0.562972 0.283877 0.549437 0.284498 0.534454 0.285912C0.528903 0.286446 0.523127 0.287067 0.517161 0.287843C0.511592 0.288567 0.505834 0.289377 0.499868 0.290325C0.45992 0.296653 0.411765 0.308291 0.354248 0.327963V0.0962219C0.413507 0.0675495 0.472627 0.0546875 0.524782 0.0546875C0.587989 0.0546875 0.640903 0.0736185 0.671265 0.106187C0.684161 0.120015 0.687161 0.15229 0.685989 0.186808Z" fill="white"/>
<path d="M0.33409 0.854414V0.866724C0.33409 0.867397 0.334054 0.868052 0.333985 0.868707C0.333485 0.874138 0.330813 0.878931 0.326882 0.882276H0.326865C0.323383 0.885224 0.318917 0.887 0.314003 0.887069C0.314003 0.887069 0.240159 0.888052 0.240072 0.888052C0.2354 0.888052 0.230883 0.886449 0.227279 0.883518C0.226762 0.883104 0.226279 0.882655 0.225796 0.88219C0.222503 0.878948 0.220416 0.87469 0.219899 0.870173C0.219778 0.869345 0.219727 0.868535 0.219727 0.867707V0.855844C0.226347 0.854879 0.233124 0.854086 0.240072 0.853465V0.0368274C0.240072 0.0164825 0.256554 8.10176e-10 0.276882 8.10176e-10C0.27733 8.10176e-10 0.277796 -4.03285e-07 0.278245 1.68381e-05C0.298227 0.000723735 0.313744 0.017742 0.313744 0.0376903V0.852552C0.320675 0.853 0.327452 0.853621 0.33409 0.854414Z" fill="white"/>
<path d="M0.478147 0.978879H0.0830101C0.0825618 0.916654 0.148182 0.867154 0.279768 0.866223C0.411372 0.865292 0.477716 0.916654 0.478147 0.978879Z" fill="white"/>
<path d="M0.0986781 0.964236C0.102851 0.943442 0.116729 0.925339 0.139471 0.91127C0.156729 0.900614 0.178609 0.892562 0.204333 0.887304C0.211626 0.885804 0.219264 0.884546 0.227178 0.883511C0.243575 0.881356 0.261212 0.880183 0.27997 0.880063C0.281126 0.880046 0.282264 0.880046 0.283402 0.880046C0.298643 0.880046 0.313109 0.880804 0.326764 0.882269H0.326781C0.334712 0.883097 0.342367 0.884183 0.349729 0.885494C0.41304 0.896787 0.454264 0.925011 0.462488 0.964236H0.0986781ZM0.492471 0.9772C0.491798 0.9412 0.47204 0.909201 0.43673 0.88696C0.414678 0.873098 0.386799 0.863114 0.354333 0.85739C0.347747 0.856201 0.340937 0.855201 0.333989 0.854408C0.327351 0.853615 0.320574 0.852994 0.313643 0.852545C0.30385 0.85189 0.293764 0.851562 0.283402 0.851562C0.282212 0.851562 0.280988 0.851563 0.279764 0.85158C0.265971 0.851684 0.252713 0.852321 0.239971 0.853459C0.233023 0.854079 0.226246 0.854873 0.219626 0.855838C0.212643 0.856821 0.20585 0.857977 0.199281 0.859321C0.169919 0.865252 0.144678 0.874581 0.124489 0.887046C0.088368 0.909391 0.0686085 0.94189 0.0688498 0.97858C0.0689188 0.986407 0.0752817 0.992718 0.0830921 0.992718H0.478299C0.486161 0.992718 0.49254 0.986356 0.49254 0.978477C0.49254 0.978046 0.492505 0.977614 0.492471 0.9772Z" fill="white"/>
</g>
<defs>
<clipPath id="clip0_227_134">
<rect width="1" height="1" fill="white"/>
</clipPath>
</defs>
</svg>
