<svg width="25" height="25" viewBox="0 0 25 25" fill="none" xmlns="http://www.w3.org/2000/svg">
<path d="M8.22632 3.32117H5.22632C4.69589 3.32117 4.18718 3.53188 3.8121 3.90695C3.43703 4.28203 3.22632 4.79073 3.22632 5.32117V8.32117M21.2263 8.32117V5.32117C21.2263 4.79073 21.0156 4.28203 20.6405 3.90695C20.2655 3.53188 19.7568 3.32117 19.2263 3.32117H16.2263M16.2263 21.3212H19.2263C19.7568 21.3212 20.2655 21.1105 20.6405 20.7354C21.0156 20.3603 21.2263 19.8516 21.2263 19.3212V16.3212M3.22632 16.3212V19.3212C3.22632 19.8516 3.43703 20.3603 3.8121 20.7354C4.18718 21.1105 4.69589 21.3212 5.22632 21.3212H8.22632" stroke="black" stroke-width="2" stroke-linecap="round" stroke-linejoin="round"/>
</svg>
