<svg width="1" height="1" viewBox="0 0 1 1" fill="none" xmlns="http://www.w3.org/2000/svg">
<path d="M0.319473 0.728741C0.319473 0.738251 0.311735 0.745987 0.302225 0.745987H0.134735C0.125225 0.745987 0.117487 0.738251 0.117487 0.728741V0.561251C0.117487 0.551741 0.125225 0.544001 0.134735 0.544001H0.302225C0.311735 0.544001 0.319473 0.551741 0.319473 0.561251V0.728741ZM0.302225 0.517334H0.134735C0.110482 0.517334 0.0908203 0.536997 0.0908203 0.561251V0.728741C0.0908203 0.752994 0.110482 0.772654 0.134735 0.772654H0.302225C0.326478 0.772654 0.346139 0.752994 0.346139 0.728741V0.561251C0.346139 0.536997 0.326478 0.517334 0.302225 0.517334Z" fill="black" fill-opacity="0.5"/>
<path d="M0.600968 0.728741C0.600968 0.738251 0.593231 0.745987 0.583718 0.745987H0.416231C0.406718 0.745987 0.398981 0.738251 0.398981 0.728741V0.561251C0.398981 0.551741 0.406718 0.544001 0.416231 0.544001H0.583718C0.593231 0.544001 0.600968 0.551741 0.600968 0.561251V0.728741ZM0.583718 0.517334H0.416231C0.391978 0.517334 0.372314 0.536997 0.372314 0.561251V0.728741C0.372314 0.752994 0.391978 0.772654 0.416231 0.772654H0.583718C0.607974 0.772654 0.627634 0.752994 0.627634 0.728741V0.561251C0.627634 0.536997 0.607974 0.517334 0.583718 0.517334Z" fill="black"/>
<path d="M0.600968 0.438699C0.600968 0.448209 0.593231 0.455946 0.583718 0.455946H0.416231C0.406718 0.455946 0.398981 0.448209 0.398981 0.438699V0.27121C0.398981 0.261699 0.406718 0.253962 0.416231 0.253962H0.583718C0.593231 0.253962 0.600968 0.261699 0.600968 0.27121V0.438699ZM0.583718 0.227295H0.416231C0.391978 0.227295 0.372314 0.246956 0.372314 0.27121V0.438699C0.372314 0.462952 0.391978 0.482612 0.416231 0.482612H0.583718C0.607974 0.482612 0.627634 0.462952 0.627634 0.438699V0.27121C0.627634 0.246956 0.607974 0.227295 0.583718 0.227295Z" fill="black"/>
<path d="M0.882581 0.728741C0.882581 0.738251 0.874844 0.745987 0.865334 0.745987H0.697844C0.688334 0.745987 0.680597 0.738251 0.680597 0.728741V0.561251C0.680597 0.551741 0.688334 0.544001 0.697844 0.544001H0.865334C0.874844 0.544001 0.882581 0.551741 0.882581 0.561251V0.728741ZM0.865334 0.517334H0.697844C0.673591 0.517334 0.653931 0.536997 0.653931 0.561251V0.728741C0.653931 0.752994 0.673591 0.772654 0.697844 0.772654H0.865334C0.889587 0.772654 0.909247 0.752994 0.909247 0.728741V0.561251C0.909247 0.536997 0.889587 0.517334 0.865334 0.517334Z" fill="black" fill-opacity="0.5"/>
<path d="M0.271113 0.631644H0.19811L0.227831 0.601924C0.230434 0.599321 0.231736 0.595908 0.231736 0.592494C0.231736 0.589084 0.230434 0.585671 0.227831 0.583068C0.222624 0.577861 0.214181 0.577861 0.208974 0.583068L0.156494 0.635548C0.156415 0.635628 0.156341 0.635708 0.156265 0.635788C0.156193 0.635864 0.156118 0.635938 0.156048 0.636018C0.155988 0.636081 0.155932 0.636151 0.155874 0.636218C0.155788 0.636314 0.155702 0.636411 0.155619 0.636511C0.155577 0.636564 0.155538 0.636618 0.155497 0.636668C0.155401 0.636788 0.155305 0.636908 0.155213 0.637031C0.155189 0.637064 0.155166 0.637098 0.155142 0.637131C0.155036 0.637278 0.154932 0.637424 0.154832 0.637574C0.154824 0.637584 0.154817 0.637598 0.154809 0.637608C0.153407 0.639721 0.152588 0.642251 0.152588 0.644978C0.152588 0.648681 0.154098 0.652028 0.156536 0.654444L0.208974 0.706884C0.214181 0.712091 0.222624 0.712091 0.227831 0.706884C0.233038 0.701678 0.233038 0.693234 0.227831 0.688028L0.198113 0.658311H0.271113C0.278477 0.658311 0.284446 0.652341 0.284446 0.644978C0.284446 0.637614 0.278477 0.631644 0.271113 0.631644Z" fill="black" fill-opacity="0.5"/>
<path d="M0.543072 0.635654L0.513352 0.665374V0.592374C0.513352 0.585007 0.507382 0.579041 0.500019 0.579041C0.492656 0.579041 0.486686 0.585007 0.486686 0.592374V0.665374L0.456966 0.635654C0.454362 0.633051 0.450952 0.631751 0.447539 0.631751C0.444126 0.631751 0.440712 0.633051 0.438109 0.635654C0.432902 0.640861 0.432902 0.649304 0.438109 0.654511L0.490592 0.70699C0.490669 0.70707 0.490752 0.707144 0.490832 0.707221C0.490909 0.707294 0.490982 0.707367 0.491059 0.707437C0.491126 0.707497 0.491192 0.707554 0.491262 0.707611C0.491359 0.707697 0.491456 0.707784 0.491556 0.707867C0.491609 0.707907 0.491659 0.707947 0.491712 0.70799C0.491832 0.708084 0.491952 0.708181 0.492076 0.708271C0.492109 0.708297 0.492142 0.708321 0.492176 0.708344C0.492322 0.708451 0.492469 0.708554 0.492616 0.708654C0.492629 0.708661 0.492642 0.708667 0.492652 0.708677C0.494762 0.710077 0.497296 0.710897 0.500019 0.710897C0.503722 0.710897 0.507072 0.709387 0.509489 0.706951L0.561929 0.654511C0.567136 0.649304 0.567136 0.640861 0.561929 0.635654C0.556719 0.630447 0.548279 0.630447 0.543072 0.635654Z" fill="black"/>
<path d="M0.509446 0.292907C0.509369 0.292829 0.509286 0.292755 0.509206 0.292678C0.509129 0.292606 0.509056 0.292532 0.508979 0.292461C0.508912 0.292401 0.508842 0.292345 0.508776 0.292287C0.508679 0.292202 0.508582 0.292115 0.508482 0.292033C0.508432 0.29199 0.508379 0.291951 0.508326 0.29191C0.508206 0.291814 0.508086 0.291718 0.507962 0.291627C0.507929 0.291602 0.507896 0.29158 0.507862 0.291556C0.507716 0.29145 0.507569 0.291345 0.507422 0.291245C0.507409 0.291237 0.507396 0.29123 0.507386 0.291223C0.505276 0.28982 0.502742 0.289001 0.500019 0.289001C0.496316 0.289001 0.492966 0.290512 0.490549 0.292949L0.438109 0.345388C0.432902 0.350595 0.432902 0.359038 0.438109 0.364245C0.443319 0.369452 0.451759 0.369452 0.456966 0.364245L0.486686 0.334525V0.407525C0.486686 0.414888 0.492656 0.420858 0.500019 0.420858C0.507382 0.420858 0.513352 0.414888 0.513352 0.407525V0.334525L0.543072 0.364245C0.545676 0.366848 0.549086 0.368148 0.552499 0.368148C0.555912 0.368148 0.559326 0.366848 0.561929 0.364245C0.567136 0.359038 0.567136 0.350595 0.561929 0.345388L0.509446 0.292907Z" fill="black"/>
<path d="M0.791046 0.583068C0.785839 0.577861 0.777399 0.577861 0.772193 0.583068C0.766983 0.588274 0.766983 0.596718 0.772193 0.601924L0.80191 0.631641H0.72891C0.721546 0.631641 0.715576 0.637611 0.715576 0.644974C0.715576 0.652338 0.721546 0.658308 0.72891 0.658308H0.801913L0.772193 0.688028C0.769586 0.690631 0.768286 0.694044 0.768286 0.697454C0.768286 0.700868 0.769586 0.704281 0.772193 0.706884C0.777399 0.712091 0.785839 0.712091 0.791046 0.706884L0.843529 0.654404C0.843606 0.654324 0.84368 0.654244 0.843756 0.654164C0.84383 0.654088 0.843903 0.654011 0.843973 0.653934C0.844033 0.653868 0.844089 0.653801 0.844149 0.653734C0.844233 0.653634 0.844319 0.653538 0.844403 0.653438C0.844446 0.653388 0.844483 0.653334 0.844526 0.653281C0.844619 0.653161 0.844716 0.653041 0.844809 0.652918C0.844833 0.652884 0.844856 0.652851 0.844879 0.652818C0.844986 0.652674 0.845089 0.652528 0.845189 0.652378C0.845196 0.652364 0.845206 0.652354 0.845213 0.652341C0.846616 0.650231 0.847433 0.647698 0.847433 0.644974C0.847433 0.641271 0.845923 0.637921 0.843486 0.635504L0.791046 0.583068Z" fill="black" fill-opacity="0.5"/>
</svg>
