<?xml version="1.0" encoding="UTF-8" standalone="no"?>
<!DOCTYPE svg PUBLIC "-//W3C//DTD SVG 1.1//EN" "http://www.w3.org/Graphics/SVG/1.1/DTD/svg11.dtd">
<svg width="100%" height="100%" viewBox="0 0 2147 2119" version="1.1" xmlns="http://www.w3.org/2000/svg" xmlns:xlink="http://www.w3.org/1999/xlink" xml:space="preserve" xmlns:serif="http://www.serif.com/" style="fill-rule:evenodd;clip-rule:evenodd;stroke-linejoin:round;stroke-miterlimit:2;">
    <g transform="matrix(1,0,0,1,-846.997,-20.7019)">
        <g transform="matrix(6.13168,0,0,6.13168,-2013.9,-2584)">
            <path d="M520.854,571.184C504.486,578.399 483.318,587.769 474.954,603.733C458.267,635.578 470.519,665.733 477.356,682.605C491.453,717.391 538.736,761.971 652.101,769.751C798.089,779.77 820.241,652.86 816.117,598.2C811.993,543.54 805.657,471.814 685.865,431.931C671.059,427.001 658.793,424.796 648.504,424.795C575.548,424.788 601.638,535.575 520.854,571.184Z" style="fill-rule:nonzero;"/>
        </g>
        <g transform="matrix(6.13168,0,0,6.13168,951.491,294.468)">
            <path d="M0,75.421C1.398,78.716 4.437,80.926 7.916,81.267C21.609,82.609 41.367,76.806 61.795,51.129C84.633,22.423 109.66,-7.188 85.143,-4.895C60.624,-2.602 20.113,20.67 5.433,45.025C-3.584,59.984 -2.318,69.954 0,75.421" style="fill-rule:nonzero;"/>
        </g>
    </g>
</svg>
