<svg width="128" height="42" viewBox="0 0 128 42" fill="none" xmlns="http://www.w3.org/2000/svg">
<path d="M32.3438 13.48C33.0638 13.48 33.6718 13.416 34.1678 13.288C34.6638 13.16 35.0798 12.992 35.4158 12.784L36.1358 15.4C35.8158 15.592 35.2958 15.784 34.5758 15.976C33.8718 16.168 32.9998 16.264 31.9598 16.264C30.7758 16.264 29.6878 16.08 28.6958 15.712C27.7038 15.344 26.8558 14.824 26.1518 14.152C25.4478 13.464 24.8958 12.64 24.4958 11.68C24.1118 10.704 23.9198 9.616 23.9198 8.416C23.9198 7.248 24.1038 6.184 24.4718 5.224C24.8558 4.248 25.3918 3.424 26.0798 2.752C26.7838 2.064 27.6318 1.536 28.6238 1.168C29.6318 0.783999 30.7598 0.592 32.0078 0.592C33.0638 0.592 33.9198 0.696 34.5758 0.904C35.2478 1.096 35.7758 1.296 36.1598 1.504L35.3438 4.168C34.9758 3.96 34.5358 3.776 34.0238 3.616C33.5278 3.456 32.9758 3.376 32.3678 3.376C31.7278 3.376 31.1278 3.472 30.5678 3.664C30.0078 3.84 29.5198 4.128 29.1038 4.528C28.6878 4.928 28.3598 5.448 28.1198 6.088C27.8798 6.712 27.7598 7.48 27.7598 8.392C27.7598 9.24 27.8718 9.984 28.0958 10.624C28.3358 11.264 28.6638 11.8 29.0798 12.232C29.4958 12.648 29.9758 12.96 30.5198 13.168C31.0798 13.376 31.6878 13.48 32.3438 13.48ZM43.9512 0.879999H47.5992V13.168H53.5752V16H43.9512V0.879999ZM55.2715 0.879999H65.3515V3.664H58.9195V6.76H64.7275V9.52H58.9195V13.216H65.4235V16H55.2715V0.879999ZM70.2128 0.879999L72.2048 7.192C72.4448 7.96 72.7008 8.824 72.9728 9.784C73.2448 10.728 73.4848 11.68 73.6928 12.64H73.7648C73.9728 11.68 74.2048 10.728 74.4608 9.784C74.7328 8.84 74.9968 7.968 75.2528 7.168L77.2208 0.879999H80.9648L75.7568 16H71.7008L66.3488 0.879999H70.2128ZM82.6934 0.879999H92.7734V3.664H86.3414V6.76H92.1494V9.52H86.3414V13.216H92.8454V16H82.6934V0.879999ZM95.2559 0.879999H98.9039V13.168H104.88V16H95.2559V0.879999ZM1.66956 25.88H6.22956L7.86156 31.184C7.97356 31.504 8.08556 31.88 8.19756 32.312C8.32556 32.728 8.44556 33.168 8.55756 33.632C8.68556 34.08 8.79756 34.536 8.89356 35C9.00556 35.464 9.09356 35.896 9.15756 36.296H9.27756C9.34156 35.864 9.42956 35.4 9.54156 34.904C9.66956 34.392 9.78956 33.904 9.90156 33.44C10.0296 32.96 10.1496 32.52 10.2616 32.12C10.3736 31.72 10.4616 31.408 10.5256 31.184L12.1096 25.88H16.6696L17.7496 41H14.3416L14.0776 35.888C14.0456 35.408 14.0216 34.888 14.0056 34.328C13.9896 33.752 13.9736 33.168 13.9576 32.576C13.9576 31.984 13.9576 31.4 13.9576 30.824C13.9576 30.248 13.9576 29.72 13.9576 29.24H13.8856C13.7736 29.768 13.6456 30.312 13.5016 30.872C13.3736 31.432 13.2376 31.992 13.0936 32.552C12.9496 33.096 12.8056 33.632 12.6616 34.16C12.5176 34.672 12.3736 35.144 12.2296 35.576L10.5496 41H7.81356L6.06156 35.6C5.91756 35.152 5.77356 34.672 5.62956 34.16C5.48556 33.632 5.34156 33.096 5.19756 32.552C5.06956 31.992 4.94156 31.432 4.81356 30.872C4.68556 30.312 4.57356 29.768 4.47756 29.24H4.40556C4.42156 29.752 4.42156 30.312 4.40556 30.92C4.40556 31.512 4.39756 32.112 4.38156 32.72C4.36556 33.312 4.34156 33.888 4.30956 34.448C4.29356 34.992 4.27756 35.472 4.26156 35.888L3.99756 41H0.637563L1.66956 25.88ZM20.8652 25.88H30.9453V28.664H24.5133V31.76H30.3213V34.52H24.5133V38.216H31.0173V41H20.8652V25.88ZM33.4277 25.88H36.7878L40.0998 30.944C40.6918 31.856 41.2598 32.792 41.8038 33.752C42.3638 34.696 42.7958 35.552 43.0998 36.32H43.1478C43.0678 35.36 43.0198 34.4 43.0038 33.44C42.9878 32.464 42.9798 31.496 42.9798 30.536V25.88H46.3398V41H42.9798L39.4758 35.84C38.8998 34.992 38.3718 34.128 37.8918 33.248C37.4118 32.368 37.0038 31.44 36.6678 30.464H36.6198C36.6998 31.472 36.7478 32.44 36.7638 33.368C36.7798 34.296 36.7878 35.24 36.7878 36.2V41H33.4277V25.88ZM59.9699 25.88V28.712H55.8419V41H52.1939V28.712H48.1619V25.88H59.9699ZM68.2789 25.592C69.3669 25.592 70.3749 25.776 71.3029 26.144C72.2309 26.496 73.0309 27.008 73.7029 27.68C74.3749 28.352 74.8949 29.176 75.2629 30.152C75.6469 31.128 75.8389 32.232 75.8389 33.464C75.8389 34.664 75.6389 35.744 75.2389 36.704C74.8549 37.664 74.3189 38.488 73.6309 39.176C72.9589 39.848 72.1509 40.368 71.2069 40.736C70.2789 41.088 69.2709 41.264 68.1829 41.264C67.0949 41.264 66.0869 41.088 65.1589 40.736C64.2309 40.384 63.4309 39.88 62.7589 39.224C62.0869 38.552 61.5589 37.736 61.1749 36.776C60.8069 35.8 60.6229 34.696 60.6229 33.464C60.6229 32.264 60.8149 31.184 61.1989 30.224C61.5829 29.248 62.1189 28.416 62.8069 27.728C63.4949 27.04 64.3029 26.512 65.2309 26.144C66.1749 25.776 67.1909 25.592 68.2789 25.592ZM64.4629 33.464C64.4629 34.312 64.5589 35.056 64.7509 35.696C64.9589 36.336 65.2389 36.864 65.5909 37.28C65.9429 37.696 66.3429 38.008 66.7909 38.216C67.2549 38.424 67.7509 38.528 68.2789 38.528C68.7909 38.528 69.2709 38.424 69.7189 38.216C70.1829 38.008 70.5829 37.696 70.9189 37.28C71.2549 36.864 71.5189 36.336 71.7109 35.696C71.9029 35.056 71.9989 34.312 71.9989 33.464C71.9989 32.584 71.8949 31.824 71.6869 31.184C71.4949 30.528 71.2229 29.992 70.8709 29.576C70.5189 29.16 70.1109 28.848 69.6469 28.64C69.1989 28.432 68.7109 28.328 68.1829 28.328C67.6709 28.328 67.1829 28.44 66.7189 28.664C66.2709 28.872 65.8789 29.192 65.5429 29.624C65.2069 30.056 64.9429 30.592 64.7509 31.232C64.5589 31.872 64.4629 32.616 64.4629 33.464ZM78.334 25.88H84.334C85.198 25.88 85.958 26.008 86.614 26.264C87.286 26.504 87.838 26.84 88.27 27.272C88.718 27.704 89.054 28.208 89.278 28.784C89.502 29.36 89.614 29.976 89.614 30.632C89.614 31.256 89.518 31.808 89.326 32.288C89.15 32.752 88.918 33.16 88.63 33.512C88.342 33.864 88.03 34.152 87.694 34.376C87.358 34.6 87.046 34.776 86.758 34.904L90.382 41H86.182L83.494 35.552H81.982V41H78.334V25.88ZM81.982 32.792H83.086C83.918 32.792 84.59 32.624 85.102 32.288C85.614 31.952 85.87 31.408 85.87 30.656C85.87 30.032 85.662 29.536 85.246 29.168C84.83 28.8 84.23 28.616 83.446 28.616H81.982V32.792ZM95.9742 25.88V41H92.3262V25.88H95.9742ZM99.1465 25.88H102.507L105.819 30.944C106.411 31.856 106.979 32.792 107.523 33.752C108.083 34.696 108.515 35.552 108.819 36.32H108.867C108.787 35.36 108.739 34.4 108.723 33.44C108.707 32.464 108.699 31.496 108.699 30.536V25.88H112.059V41H108.699L105.195 35.84C104.619 34.992 104.091 34.128 103.611 33.248C103.131 32.368 102.723 31.44 102.387 30.464H102.339C102.419 31.472 102.467 32.44 102.483 33.368C102.499 34.296 102.507 35.24 102.507 36.2V41H99.1465V25.88ZM122.689 25.592C123.649 25.592 124.497 25.672 125.233 25.832C125.985 25.992 126.649 26.208 127.225 26.48L126.481 28.88C125.937 28.608 125.361 28.416 124.753 28.304C124.161 28.176 123.585 28.112 123.025 28.112C122.385 28.112 121.785 28.216 121.225 28.424C120.665 28.632 120.169 28.96 119.737 29.408C119.321 29.84 118.993 30.392 118.753 31.064C118.513 31.736 118.393 32.536 118.393 33.464C118.393 35.16 118.761 36.464 119.497 37.376C120.249 38.272 121.321 38.72 122.713 38.72C123.049 38.72 123.353 38.704 123.625 38.672C123.897 38.64 124.105 38.592 124.249 38.528V35.24H121.873V32.552H127.753V40.328C127.129 40.6 126.393 40.824 125.545 41C124.697 41.176 123.745 41.264 122.689 41.264C121.537 41.264 120.465 41.096 119.473 40.76C118.497 40.424 117.641 39.928 116.905 39.272C116.169 38.6 115.593 37.784 115.177 36.824C114.761 35.848 114.553 34.728 114.553 33.464C114.553 32.2 114.761 31.08 115.177 30.104C115.593 29.112 116.169 28.288 116.905 27.632C117.641 26.96 118.497 26.456 119.473 26.12C120.465 25.768 121.537 25.592 122.689 25.592Z" fill="white"/>
</svg>
