<svg width="75" height="60" viewBox="0 0 75 60" fill="none" xmlns="http://www.w3.org/2000/svg">
<path fill-rule="evenodd" clip-rule="evenodd" d="M61.0279 39.8645L62.6163 39.2821C64.8735 38.3668 65.2079 37.7844 65.0407 36.2867V30.296C66.7127 34.6226 68.3847 37.618 71.6451 37.618C72.0631 37.618 72.5647 37.5348 73.0663 37.4516L74.3203 37.2019L73.4007 36.2035C72.8155 35.6211 72.5647 35.1218 72.2303 34.5394C72.0631 34.2898 71.9795 34.0402 71.8123 33.7906C71.0599 32.5425 69.2207 32.1265 67.7159 32.7921C67.0471 31.4608 66.3783 29.7135 65.5423 27.5502L65.3751 27.1342C65.2079 26.8014 65.1243 26.4685 64.9571 26.1357V26.0525C64.4555 24.8877 63.8703 23.806 63.2851 22.7243C62.6999 21.7259 62.1147 20.8938 61.4459 20.145C59.6903 18.1481 57.4332 16.9 54.6744 16.4008C52.7516 16.068 51.414 15.9848 49.6584 15.9016C49.324 15.9016 48.906 15.9016 48.5716 15.8184C47.8192 15.7352 46.2308 15.652 44.6424 15.4855C43.5556 15.4023 42.5524 15.3191 41.7164 15.2359C41.8 14.9863 41.8 14.7367 41.8 14.4871C41.8 14.1543 41.8 13.8215 41.7164 13.5718H52.7516C55.594 13.5718 57.684 12.3238 58.8544 9.82763C61.6967 9.82763 63.7031 8.49636 64.9571 6.08342H65.3751C68.3011 6.08342 70.3911 4.75215 71.6451 2.0896L72.0631 1.34076H34.7776C32.3532 1.34076 30.2632 2.92165 29.4272 5.41779V5.50099C28.7584 3.75369 27.6716 2.25601 26.1668 1.34076C24.0768 0.0926921 21.736 -0.323331 19.8968 0.259101C19.3116 0.42551 18.6428 0.675124 18.1412 1.00794C17.7232 1.34076 17.0544 1.75678 16.6364 2.33922C16.1348 2.92165 15.7168 3.67049 15.3824 4.33613C15.1316 4.50254 14.9644 4.66894 14.8808 4.83535L14.4628 5.6674V5.7506C13.9612 6.91547 13.2924 7.74751 12.7908 8.41315C12.2892 8.99558 12.2892 9.57802 12.2892 9.91083C12.3728 10.3269 12.54 10.6597 12.7908 10.9093C12.6236 11.1589 12.54 11.4917 12.54 11.7413C12.54 12.7398 13.376 13.4886 14.4628 13.4886C15.2152 13.4886 15.884 13.1558 16.5528 12.6566C16.8036 12.4902 17.556 11.9909 17.8068 11.9909C18.1412 11.9909 18.392 12.2406 18.392 12.5734C18.392 13.4054 17.3888 13.8215 16.6364 13.8215L15.1316 13.9879C14.0448 14.0711 13.5432 14.6535 13.5432 15.1527C13.5432 15.652 13.794 15.9848 13.9612 16.1512L14.0448 16.2344L14.4628 16.5672L12.7072 19.2297C11.5368 18.1481 10.1992 17.5657 9.02879 17.4825C8.27639 17.4825 7.60759 17.6489 7.10599 18.1481C6.93879 18.3145 6.85519 18.3977 6.77159 18.5641C5.5176 18.5641 4.5144 19.2297 4.0128 19.9786C3.4276 20.8106 3.6784 22.2251 4.3472 23.3068L0.1672 24.4716V43.7751H74.5711V39.9477H61.0279V39.8645ZM70.6419 34.6226C70.8091 34.8722 70.8927 35.1218 71.0599 35.2882C71.2271 35.5378 71.3943 35.7875 71.5615 36.1203C70.3911 36.0371 69.4715 35.3714 68.7191 34.2066C69.3879 33.8738 70.3075 34.1234 70.6419 34.6226ZM54.5072 18.1481C56.9315 18.5641 58.8544 19.6458 60.3591 21.3099C60.6936 21.6427 60.9443 22.0587 61.2787 22.4747C57.266 21.9755 55.8448 21.3931 53.5876 17.9817C53.922 17.9817 54.1728 18.0649 54.5072 18.1481ZM52.7516 12.3238H45.144C45.8128 11.7413 46.3144 10.9925 46.7324 10.1604H57.0152C56.1792 11.6581 54.758 12.3238 52.7516 12.3238ZM58.7707 8.66277H51.1632C51.832 8.08033 52.4172 7.33149 52.8352 6.41624H63.1179C62.2819 7.91392 60.8607 8.66277 58.7707 8.66277ZM59.3559 2.92165H69.5551C68.5519 4.25292 67.2143 4.91856 65.2915 4.91856H57.684C58.3528 4.33613 58.938 3.67049 59.3559 2.92165ZM17.8904 3.25447C18.1412 2.92165 18.5592 2.58883 18.9772 2.25601C19.3116 2.0064 19.8132 1.75678 20.3148 1.67358C21.0672 1.50717 21.9032 1.50717 22.7392 1.67358L19.9804 3.33767C19.646 3.33767 19.3116 3.25447 18.9772 3.25447C18.4756 3.25447 18.0576 3.25447 17.7232 3.33767C17.8068 3.33767 17.8068 3.33767 17.8904 3.25447ZM14.7136 15.2359C14.7136 15.1527 14.7972 15.0695 14.8808 15.0695L16.2184 15.1527C17.8068 15.0695 19.4788 14.4039 19.646 12.7398C19.646 11.5749 18.81 10.4933 17.7232 10.4933C17.138 10.4933 16.3856 10.9093 15.6332 11.4085C15.1316 11.7413 14.7136 11.9909 14.4628 11.9909C14.2956 11.9909 14.1284 11.8245 14.1284 11.7413C14.1284 11.7413 14.1284 11.7413 14.1284 11.6581L14.9644 10.4933L14.212 9.99404C14.0448 9.91083 13.794 9.66122 13.794 9.57802C13.794 9.49481 13.8776 9.41161 13.8776 9.3284C14.212 8.99558 14.5464 8.57956 14.8808 7.99713C15.1316 7.66431 15.2152 7.4979 15.5496 7.4979C15.884 7.4979 16.2184 7.74752 16.2184 8.16354C16.2184 8.41315 16.4692 8.57956 16.8036 8.57956C17.138 8.57956 17.3052 8.32995 17.4724 8.16354C17.4724 8.16354 18.2248 7.4979 17.8068 7.16508C17.3888 6.83226 15.5496 7.58111 16.0512 5.91701L16.2184 5.6674C16.3856 5.41779 17.3052 4.75215 19.0608 4.75215C19.3952 4.75215 19.7296 4.75215 20.1476 4.83535H20.3984L24.244 2.50563C24.244 2.58883 24.3276 2.67203 24.3276 2.67203C24.4948 3.8369 23.826 5.16817 22.6556 5.83381L22.154 6.08342L22.4884 7.83072C21.4852 8.16354 20.8164 8.91238 20.8164 9.82763C20.8164 10.1604 20.9 10.5765 20.9836 10.9925C21.0672 11.5749 21.2344 12.1574 21.2344 12.7398C21.2344 14.5703 18.7264 15.7352 16.6364 15.652H16.5528C16.4692 15.652 15.1316 15.5687 14.7972 15.3191C14.7136 15.4023 14.7136 15.3191 14.7136 15.2359ZM5.1832 20.8938C5.5176 20.3946 6.18639 20.0618 7.02239 20.145L7.69119 20.2282L7.94199 19.6458C8.02559 19.4794 8.10919 19.313 8.19279 19.2297C8.35999 19.0633 8.69439 18.9801 9.02879 18.9801C9.94839 18.9801 11.1188 19.6458 12.0384 20.6442C12.3728 20.977 12.7072 21.4763 12.958 21.8923C13.0416 21.9755 13.0416 22.0587 13.1252 22.1419C13.2088 22.2251 13.2924 22.3915 13.2924 22.3915C13.2924 22.4747 13.794 23.1404 13.794 23.2236C14.1284 22.8075 14.4628 22.3083 14.7136 21.8923V21.8091C14.63 21.6427 14.4628 21.3931 14.3792 21.2267L14.2956 21.1435C14.2956 21.1435 14.212 21.0602 14.212 20.977C14.1284 20.8106 13.9612 20.561 13.8776 20.4778L15.884 17.316C16.3856 17.3992 16.8036 17.3992 17.0544 17.3992H17.138C19.9804 17.3992 22.9064 15.7352 22.9064 13.0726V12.9894C22.9064 12.2406 22.7392 11.5749 22.6556 10.9925C22.572 10.5765 22.4884 10.2437 22.4884 10.0772C22.4884 9.74443 22.9064 9.41161 23.4916 9.41161H24.4112L23.9932 7.08188C25.2472 6.16663 26.0832 4.58574 25.9996 3.17126C27.4208 4.25292 28.3404 6.08342 28.5076 7.99713C28.5912 8.57956 28.424 9.3284 28.2568 10.1604L28.1732 10.4933C27.8388 11.8245 27.3372 13.239 27.0864 13.9047L26.8356 14.4871L27.4208 14.8199C28.424 15.4023 29.0928 15.8184 29.0928 17.1496C29.0928 18.7305 27.6716 19.8954 26.334 20.145L24.4112 20.4778L25.9996 21.5595C26.5012 21.8923 26.8356 22.4747 26.8356 23.0572C26.8356 24.0556 25.9996 24.8045 24.9964 24.8045H24.4112L24.244 25.3037C23.6588 27.1342 23.0736 28.0494 21.0672 28.299V26.3853V25.5533L20.9836 23.806L19.7296 25.0541C19.3116 25.4701 18.5592 25.8029 17.7232 25.9693V24.4716L8.94519 22.1419L5.85199 22.974C5.1832 22.3083 5.016 21.1435 5.1832 20.8938ZM2.6752 39.8645L9.02879 38.2004L15.3824 39.8645H2.6752ZM16.2184 38.5332L8.94519 36.6195L1.672 38.5332V25.6365L8.94519 23.7228L16.2184 25.6365V38.5332ZM19.646 36.0371C18.9772 36.9523 18.8936 38.2836 19.3952 39.8645H17.8068V27.5502C18.392 27.467 18.9772 27.3006 19.5624 27.051C19.5624 27.5502 19.4788 28.0494 19.3952 28.5487C19.3952 28.7151 19.3116 28.7983 19.3116 28.9647L19.1444 29.8799H20.064C21.4016 29.8799 22.4048 29.6303 23.2408 29.2975V34.4562C23.2408 34.6226 23.1572 34.7058 22.99 34.7058H22.7392C21.4016 34.6226 20.2312 35.1218 19.646 36.0371ZM36.366 36.3699C35.7808 37.0355 35.2792 38.1172 35.6136 39.8645H26.1668C27.17 39.7813 27.9224 39.5317 28.424 39.0324C29.0092 38.3668 29.0928 37.5348 29.0928 36.8691C29.0928 36.7859 29.1764 36.6195 29.678 36.3699L30.514 36.0371L30.0124 35.2882C29.1764 34.0402 29.5944 31.3776 29.8452 29.8799H29.9288C33.1056 29.8799 35.1956 29.2143 37.3692 28.5487C37.9544 28.3823 38.5396 28.2158 39.1248 27.9662C39.1248 27.9662 39.7936 27.7998 40.6296 27.5502L43.7228 32.6257V32.7089C44.0572 33.1249 44.0572 33.4577 43.472 34.0402L41.9672 35.7043L39.4592 35.205C38.3724 35.0386 37.1184 35.5378 36.366 36.3699ZM37.202 39.8645C36.9512 38.7828 37.0348 37.9508 37.5364 37.3684C38.038 36.7859 38.7068 36.7027 39.292 36.7027L42.218 37.2019H42.3016H42.7196L44.8096 34.9554C45.144 34.5394 46.2308 33.2913 45.144 31.7104L42.3852 27.2174C42.8032 27.1342 43.3048 27.1342 43.7228 27.1342C43.7228 27.1342 45.144 27.1342 46.6488 27.9662C46.816 28.3823 47.1504 28.9647 47.4012 29.6303C47.9864 30.7952 48.7388 32.2929 48.906 32.8753C48.9896 33.0417 49.1568 33.6241 48.488 34.373L43.2212 39.9477H37.202V39.8645ZM55.2596 39.8645H45.2276L49.4912 35.3714C50.3272 34.4562 50.6616 33.3745 50.2436 32.3761C50.0764 31.7936 49.4912 30.6288 48.906 29.3807C50.578 30.1296 53.1696 30.8784 58.4363 31.2944C59.1051 31.3776 59.2724 31.544 59.3559 32.1265L59.6068 34.373L56.8479 34.9554C55.9284 35.1218 55.176 35.7043 54.8416 36.6195C54.5072 37.618 54.6744 38.7828 55.2596 39.8645ZM56.3464 37.2019C56.5135 36.7859 56.7644 36.5363 57.1824 36.4531L61.2787 35.5378L60.9443 31.8768V31.7936C60.8607 31.2944 60.5263 29.8799 58.6035 29.7135C51.2468 29.1311 49.5748 28.0494 47.7356 26.8846L47.652 26.8014C45.7292 25.5533 43.8064 25.5533 43.6392 25.5533C41.5492 25.5533 38.9576 26.3853 38.7068 26.4685C38.038 26.635 37.4528 26.8846 36.8676 27.051C34.5268 27.7998 32.604 28.4655 29.26 28.299H28.6748L28.5076 28.8815C28.424 29.2975 27.4208 33.0417 28.3404 35.3714C27.5044 36.0371 27.5044 36.7027 27.5044 36.8691C27.5044 37.7012 27.3372 37.8676 27.2536 37.9508C26.8356 38.3668 25.5816 38.3668 24.4948 38.3668H24.0768L23.826 38.6996C23.1572 39.6149 21.736 39.8645 20.8164 39.6149C20.3984 38.3668 20.3984 37.4516 20.8164 36.8691C21.318 36.2035 22.2376 36.1203 22.6556 36.1203H22.9064C23.9096 36.1203 24.662 35.2882 24.662 34.373V27.7998C24.9964 27.3838 25.1636 26.8014 25.4144 26.2189C27.0028 25.9693 28.2568 24.638 28.2568 22.974C28.2568 22.3083 28.0896 21.7259 27.7552 21.2267C29.26 20.4778 30.514 19.0633 30.514 17.1496C30.514 15.2359 29.5108 14.3207 28.5912 13.8215C28.842 13.0726 29.26 11.8245 29.5944 10.4933L30.8484 5.91701C31.4336 4.08651 32.9384 2.92165 34.694 2.92165H57.4332C56.43 4.25292 55.0924 4.91856 53.1696 4.91856H39.5428L38.7904 6.41624H51.1632C50.16 7.91392 48.7388 8.66277 46.7324 8.66277H37.7872L37.0348 10.1604H44.9768C43.9736 11.6581 42.636 12.3238 40.6296 12.3238H35.7808L35.0284 13.8215H40.128C40.2116 13.9047 40.2952 14.1543 40.2952 14.7367C40.2952 15.7352 39.4592 16.484 38.456 16.484C38.1216 16.484 37.7872 16.4008 37.2856 16.1512C37.0348 16.068 36.8676 15.9848 36.6168 15.9016L35.4464 16.9832C35.6972 17.0664 35.8644 17.1496 36.1152 17.2328C37.1184 17.6489 37.7036 17.8985 38.456 17.8985C39.3756 17.8985 40.2116 17.4825 40.8804 16.9C41.7164 16.9832 43.1376 17.0664 44.5588 17.1496C46.2308 17.316 47.7356 17.3992 48.5716 17.4825C48.9896 17.4825 49.324 17.4825 49.742 17.5657C50.4108 17.5657 51.0796 17.6489 51.6648 17.6489C54.758 22.6411 56.3464 23.3068 62.3655 24.0556C62.7835 24.8045 63.2015 25.6365 63.5359 26.4685V36.2035V36.2867V36.9523C63.2851 37.2019 62.3655 37.618 62.1147 37.7012L57.0152 39.7813C56.3464 38.866 56.0956 37.9508 56.3464 37.2019ZM14.63 27.6334L9.78119 26.3853V27.9662L14.63 29.2143V27.6334ZM3.344 29.2143L8.19279 27.9662V26.3853L3.344 27.6334V29.2143ZM3.344 32.3761L8.19279 31.128V29.5471L3.344 30.7952V32.3761ZM14.63 30.7952L9.78119 29.5471V31.128L14.63 32.3761V30.7952ZM14.63 33.957L9.78119 32.7089V34.2898L14.63 35.5378V33.957ZM3.344 35.5378L8.19279 34.2898V32.7089L3.344 33.957V35.5378ZM68.3011 55.3405C67.8831 58.8351 66.9635 59.3344 64.4555 59.3344H64.2883V48.1849H65.8767V47.6025H60.6935V48.1849H62.2819V59.4176H61.0279L56.43 47.2697H55.7612C55.7612 47.2697 51.9156 58.2527 51.9156 58.3359C51.9156 58.3359 51.6648 59.2512 50.996 59.4176C50.4108 59.4176 50.4944 59.168 50.4944 59.0015V56.8382C50.4944 56.2558 50.4108 55.0077 49.9092 54.4253C49.2404 53.7597 48.1536 53.7597 48.1536 53.6765C48.1536 53.6765 50.996 53.094 50.996 50.4315C50.996 48.5178 49.6584 47.6025 47.4848 47.5193H41.2984V48.1017H42.8868V59.3344H41.2984V59.9168H46.398V59.3344H44.8096V53.9261H46.8996C50.578 54.2589 46.2308 59.9168 51.0796 59.9168H54.0892V59.3344C53.922 59.3344 52.8352 59.3344 52.7516 58.5855C52.668 58.0031 53.504 56.0062 53.504 56.0062H57.684C57.684 56.0062 58.938 59.3344 59.0215 59.3344H57.6003V59.9168H68.8863V55.3405H68.3011ZM46.816 53.3436H44.8096V48.1849H47.4012C48.906 48.4346 48.9896 50.1819 48.9896 50.6811C48.9896 52.0124 48.4044 53.3436 46.816 53.3436ZM53.8384 55.507L55.6776 50.1819L57.6003 55.507H53.8384ZM35.112 48.1017C38.2888 48.1017 39.5428 47.9353 40.0444 51.846H40.3788V47.5193H27.6716V48.1017H28.006C28.424 48.1017 29.5108 48.1017 29.5944 49.1002V56.2558L23.6588 47.5193H20.3984V48.1017H20.9C21.5688 48.1017 22.4048 48.1017 22.4884 49.1002V58.2527C22.4884 59.168 21.1508 59.5008 20.5656 59.5008V59.9168H24.9964V59.5008C24.4112 59.5008 23.0736 59.168 23.0736 58.2527V50.1819C25.4144 53.51 29.8452 59.9168 29.9288 59.9168H30.1796V49.1002C30.2632 48.1849 31.2664 48.1017 31.768 48.1017H33.1892V59.3344H31.5172V59.9168H40.546V55.3405H40.128C39.71 58.8351 38.7904 59.3344 36.2824 59.3344H35.112V53.9261H35.7808C36.8676 53.9261 37.5364 54.5917 37.7872 56.5054H38.2052V50.8475H37.7872C37.7872 50.8475 37.7036 53.2604 35.7808 53.2604H35.1956V48.1017H35.112ZM74.4875 48.1849V47.5193H69.3879V48.1849H70.9763V59.3344H69.3879V59.9168H74.4875V59.3344H72.8155V48.1849H74.4875ZM14.2956 53.2604V48.1849C17.4724 48.1849 18.6428 48.0185 19.228 51.9292H19.5624V47.6025H10.7844V48.1849H12.2892V59.4176H10.6172V60H19.646V55.4237H19.228C18.81 58.9183 17.8904 59.4176 15.3824 59.4176H14.212V54.0093H14.8808C15.9676 54.0093 16.6364 54.6749 16.8872 56.5886H17.3052V50.9307H16.8872C16.8872 50.9307 16.8036 53.3436 14.8808 53.3436H14.2956V53.2604ZM10.7008 53.4268H5.76839V54.0093H7.44039V58.0031C7.18959 59.0015 5.6012 59.4176 5.1832 59.4176C2.0064 59.4176 2.2572 54.8413 2.2572 53.5932C2.2572 52.5116 2.1736 47.7689 5.1832 47.7689C7.35679 47.7689 8.44359 49.849 8.86159 51.7627H9.19599V47.2697C9.19599 47.2697 7.69119 48.3514 7.69119 48.2682C7.69119 48.2682 7.02239 47.2697 5.0996 47.2697C1.4212 47.2697 0 50.9307 0 53.51C0 55.8398 1.0868 59.9168 5.0996 59.9168C6.35359 59.9168 7.18959 59.2512 7.69119 58.5855L9.27959 59.8336V53.9261H10.6172V53.4268H10.7008Z" fill="#B22317"/>
</svg>
