<svg width="105" height="42" viewBox="0 0 105 42" fill="none" xmlns="http://www.w3.org/2000/svg">
<path d="M9.5 30.5C9.5 30.5 18.0066 11.5 28.5 11.5C38.9934 11.5 37.0066 30.5 47.5 30.5C57.9934 30.5 56.0066 11.5 66.5 11.5C76.9934 11.5 75.0066 30.5 85.5 30.5C95.9934 30.5 104.5 11.5 104.5 11.5" stroke="white" stroke-linejoin="round" stroke-dasharray="5 5"/>
<path d="M81.8369 35.0961C81.8492 33.3758 83.2528 31.9914 84.9721 32.0005C86.6942 32.0101 88.0859 33.42 88.0731 35.1416C88.0672 35.9432 87.7596 36.6714 87.2588 37.2201C86.6386 37.8999 86.1888 38.7758 86.182 39.6967L86.1815 39.7893L83.6602 39.7706L83.6606 39.6876C83.6679 38.7635 83.2309 37.8767 82.6185 37.1836C82.1268 36.6276 81.831 35.8963 81.8369 35.0961Z" fill="white"/>
<path d="M83.9892 34.6997C83.9368 34.7129 83.9144 34.8319 83.9163 35.0242C84.0416 34.9512 84.0872 34.7658 84.0348 34.7047C84.0334 34.7033 84.032 34.7015 84.0279 34.7002C84.022 34.6979 84.0111 34.6965 83.9892 34.6997ZM84.1464 37.407C84.1446 37.4001 83.9887 36.7198 83.8784 36.0408C83.8142 35.6439 83.7823 35.3564 83.7718 35.1486C83.7135 35.134 83.6538 35.1066 83.595 35.0656C83.1133 34.7293 83.5599 34.0389 83.5791 34.0093C83.5946 33.9861 83.6388 33.9811 83.6766 34.0007C83.7149 34.0193 83.7331 34.0535 83.718 34.0777C83.5991 34.2572 83.3617 34.774 83.6816 34.9973C83.7117 35.0187 83.7404 35.0333 83.7686 35.0419C83.7613 34.6168 83.862 34.6013 83.9208 34.5926C84.0152 34.578 84.1031 34.6063 84.1555 34.6673C84.2631 34.7922 84.187 35.0365 84.012 35.1258C83.9833 35.1404 83.9523 35.1499 83.9204 35.1558C83.9477 35.6808 84.1004 36.5785 84.294 37.4197C84.3013 37.4498 84.2735 37.4712 84.233 37.4676C84.2225 37.4667 84.212 37.4639 84.2024 37.4607C84.1742 37.4498 84.1514 37.4293 84.1464 37.407Z" fill="#FA5D21"/>
<path d="M85.8908 34.7142C85.8871 34.7156 85.8853 34.7178 85.8844 34.7187C85.8306 34.7789 85.873 34.9648 85.9974 35.04C86.0024 34.8477 85.9819 34.7288 85.93 34.7146C85.9081 34.7105 85.8972 34.7119 85.8908 34.7142ZM85.6739 37.472C85.6638 37.4757 85.6538 37.4775 85.6438 37.478C85.6028 37.4812 85.5759 37.4588 85.5827 37.4292C85.7892 36.5916 85.9564 35.6958 85.9915 35.1712C85.9596 35.1653 85.9286 35.1553 85.9003 35.1403C85.7267 35.0478 85.6543 34.8026 85.7641 34.6796C85.8174 34.6194 85.9058 34.5921 85.9997 34.6085C86.058 34.618 86.1587 34.6349 86.1451 35.0601C86.1733 35.0519 86.202 35.0373 86.2325 35.0168C86.5561 34.7989 86.3264 34.2781 86.2107 34.0963C86.1952 34.0726 86.2139 34.0384 86.2531 34.0202C86.2913 34.0015 86.3355 34.0065 86.3506 34.0302C86.3693 34.0598 86.8049 34.7579 86.3182 35.0865C86.259 35.1261 86.1988 35.153 86.14 35.1667C86.1264 35.3745 86.0904 35.6611 86.0197 36.0571C85.899 36.7343 85.7322 37.4124 85.7308 37.4192C85.7254 37.4411 85.7021 37.4616 85.6739 37.472Z" fill="#FA5D21"/>
<path d="M85.5813 37.4078L85.5595 37.39C85.2017 37.0911 84.6795 37.0874 84.3177 37.3804L84.2954 37.3982L84.2785 39.7013L85.5645 39.7109L85.5813 37.4078ZM84.1486 37.3276L84.2243 37.2661C84.6412 36.9279 85.2423 36.9329 85.6542 37.2765L85.729 37.3394L85.7107 39.8594L84.1299 39.8476L84.1486 37.3276Z" fill="#FA5D21"/>
<path d="M83.6128 39.9625L86.2257 39.9816C86.3319 39.9825 86.4189 39.8968 86.4199 39.7907C86.4208 39.6845 86.3351 39.597 86.2285 39.5965L83.6155 39.5774C83.5093 39.5765 83.4223 39.6622 83.4214 39.7683C83.4209 39.875 83.5066 39.962 83.6128 39.9625Z" fill="#FA5D21" stroke="#FA5D21" stroke-width="0.00410124" stroke-miterlimit="2" stroke-linejoin="round"/>
<path d="M83.7495 40.3499L86.0831 40.3672C86.1783 40.3676 86.2558 40.2824 86.2563 40.1758C86.2572 40.0696 86.1806 39.9826 86.0858 39.9817L83.7522 39.9644C83.6574 39.9639 83.58 40.05 83.579 40.1557C83.5781 40.2628 83.6547 40.3494 83.7495 40.3499Z" fill="#FA5D21" stroke="#FA5D21" stroke-width="0.00410124" stroke-miterlimit="2" stroke-linejoin="round"/>
<path d="M83.7463 40.7361L86.0804 40.753C86.1751 40.7539 86.2526 40.6682 86.2535 40.5616C86.254 40.4554 86.1779 40.3684 86.0826 40.3679L83.7495 40.3506C83.6542 40.3497 83.5768 40.4358 83.5759 40.542C83.5754 40.6486 83.6515 40.7352 83.7463 40.7361Z" fill="#FA5D21" stroke="#FA5D21" stroke-width="0.00410124" stroke-miterlimit="2" stroke-linejoin="round"/>
<path d="M83.744 41.1216L86.0776 41.139C86.1724 41.1394 86.2503 41.0542 86.2508 40.9476C86.2517 40.8414 86.1751 40.7544 86.0803 40.7534L83.7467 40.7366C83.6515 40.7357 83.574 40.8213 83.5731 40.928C83.5727 41.0346 83.6488 41.1207 83.744 41.1216Z" fill="#FA5D21" stroke="#FA5D21" stroke-width="0.00410124" stroke-miterlimit="2" stroke-linejoin="round"/>
<path d="M83.7409 41.5081L86.0745 41.5249C86.1697 41.5259 86.2472 41.4402 86.2476 41.3336C86.2486 41.2274 86.1725 41.1403 86.0772 41.1399L83.7436 41.1226C83.6488 41.1217 83.5709 41.2078 83.5704 41.314C83.5695 41.4206 83.6461 41.5072 83.7409 41.5081Z" fill="#FA5D21" stroke="#FA5D21" stroke-width="0.00410124" stroke-miterlimit="2" stroke-linejoin="round"/>
<path d="M85.5022 41.8911L84.2828 41.827C84.073 41.816 83.9143 41.674 83.929 41.51L85.9099 41.614C85.8951 41.778 85.7126 41.9018 85.5022 41.8911Z" fill="#FA5D21" stroke="#FA5D21" stroke-width="0.00410124" stroke-miterlimit="2" stroke-linejoin="round"/>
<g clip-path="url(#clip0_209_127)">
<path d="M4.91644 41.7045C2.29604 41.7045 0.14925 39.5723 0.130735 36.9519C0.11222 34.313 2.24439 32.1516 4.8833 32.1321C7.53731 32.1321 9.68411 34.2643 9.70262 36.8846C9.72114 39.5236 7.58896 41.6855 4.95005 41.7045H4.91644Z" stroke="#FA5D21" stroke-width="0.0263111" stroke-miterlimit="2" stroke-linejoin="round"/>
<path d="M5.81784 39.1252L5.81784 35.999H3.38599L3.38599 36.6938H4.07988L4.07988 39.1252H3.38599L3.38599 39.8197H6.51195L6.51195 39.1252H5.81784Z" fill="#FA5D21"/>
<path d="M5.6437 34.3491C5.6437 34.8768 5.21611 35.3044 4.68841 35.3044C4.16093 35.3044 3.73334 34.8768 3.73334 34.3491C3.73334 33.8216 4.16093 33.394 4.68841 33.394C5.21611 33.394 5.6437 33.8216 5.6437 34.3491Z" fill="#FA5D21"/>
</g>
<g clip-path="url(#clip1_209_127)">
<path d="M24.7457 2.207C24.6233 3.21518 23.7145 3.94156 22.7169 3.8291C21.7181 3.71651 21.0091 2.8083 21.1321 1.79964C21.2545 0.790915 22.1633 0.0645279 23.1609 0.176995C24.1597 0.289583 24.8692 1.19785 24.7457 2.207Z" fill="#FA5D21"/>
<path fill-rule="evenodd" clip-rule="evenodd" d="M18.4257 7.97635C18.9817 6.00837 20.7964 4.56763 22.9429 4.56763C25.0723 4.56763 26.874 5.98885 27.4473 7.93472C26.2921 9.10757 24.6886 9.83443 22.917 9.83443C21.1627 9.83443 19.5765 9.1245 18.4257 7.97635Z" fill="#FA5D21"/>
</g>
<g clip-path="url(#clip2_209_127)">
<path d="M48.9589 40.0175C49.7407 39.7366 50.1022 38.8454 49.7646 38.031L47.1431 31.705L44.1124 32.7938C44.0959 32.9526 44.111 33.169 44.2602 33.34L44.7661 33.791C44.9219 33.9233 45.0458 34.0925 45.1234 34.2797C45.2455 34.5742 45.2502 34.8909 45.1365 35.171C45.0229 35.451 44.8045 35.6615 44.5217 35.7631C44.4796 35.7782 44.4356 35.7909 44.391 35.801C43.8778 35.917 43.3004 35.6294 43.0481 35.1319C42.9392 34.917 42.8939 34.6826 42.9172 34.4543L42.9675 33.7992C42.9546 33.5836 42.8092 33.4145 42.6822 33.3075L39.6531 34.3956L40.9616 37.553C41.1028 37.5778 41.2332 37.5708 41.3398 37.5325C41.3969 37.512 41.4482 37.4822 41.492 37.4442L41.9007 36.9653C42.0184 36.8177 42.1767 36.7047 42.358 36.6398C42.6598 36.5311 43.0041 36.5625 43.3023 36.7254C43.6047 36.8906 43.8247 37.1648 43.9213 37.4977C44.0753 38.0272 43.8338 38.5913 43.3599 38.8097C43.3308 38.8232 43.3016 38.835 43.2721 38.8457C43.0915 38.9106 42.8929 38.9264 42.6979 38.8912L42.0444 38.7898C41.99 38.7895 41.9307 38.7995 41.8737 38.82C41.7668 38.8584 41.6651 38.9351 41.5787 39.0421L42.8869 42.1987L48.9589 40.0175Z" fill="#FA5D21"/>
</g>
<g clip-path="url(#clip3_209_127)">
<path d="M72.3421 3.14382C72.5588 3.6816 72.681 4.26743 72.6838 4.88021C72.7032 7.51244 70.5754 9.66884 67.9449 9.68801H67.9116C65.2977 9.68801 63.156 7.56105 63.1366 4.94743C63.1199 2.31493 65.2449 0.159093 67.8782 0.139648C68.9726 0.139648 69.9782 0.5027 70.7865 1.11353" stroke="#FA5D21" stroke-width="0.0277778" stroke-miterlimit="2" stroke-linejoin="round"/>
<path d="M68.1289 7.88286C67.7819 7.86439 67.0198 7.56792 64.9718 4.71454C64.7628 4.42293 64.8294 4.01663 65.121 3.80716C65.4126 3.59817 65.8189 3.66475 66.0283 3.95636C66.6888 4.8759 67.5369 5.91694 68.0288 6.37768C68.9308 4.89534 71.5319 0.790477 71.6583 0.591212C71.8508 0.288426 72.2517 0.198028 72.5555 0.390489C72.8588 0.582464 72.9487 0.984396 72.7562 1.28815C71.7754 2.83513 69.169 6.96235 68.8944 7.46634C68.7617 7.70935 68.5192 7.8639 68.2455 7.88091C68.212 7.88286 68.1741 7.88529 68.1289 7.88286Z" fill="#FA5D21"/>
</g>
<defs>
<clipPath id="clip0_209_127">
<rect width="10" height="10" fill="white" transform="translate(0 32)"/>
</clipPath>
<clipPath id="clip1_209_127">
<rect width="10" height="10" fill="white" transform="translate(18)"/>
</clipPath>
<clipPath id="clip2_209_127">
<rect width="10" height="10" fill="white" transform="translate(40 32)"/>
</clipPath>
<clipPath id="clip3_209_127">
<rect width="10" height="10" fill="white" transform="translate(63)"/>
</clipPath>
</defs>
</svg>
