
<svg width="100%" height="100%" viewBox="0 0 1227 1165" version="1.1" xmlns="http://www.w3.org/2000/svg" xmlns:xlink="http://www.w3.org/1999/xlink" xml:space="preserve" xmlns:serif="http://www.serif.com/" style="fill-rule:evenodd;clip-rule:evenodd;stroke-linecap:round;stroke-linejoin:round;stroke-miterlimit:1.5;">
    <g transform="matrix(1,0,0,1,-2335.3,-497.812)">
        <g transform="matrix(7.88841,0,0,7.88841,969.379,-1817.02)">
            <g transform="matrix(1.26497,0,0,1.26497,87.7063,-89.0675)">
                <g class="icon gear">
                    <g transform="matrix(1,0,0,1,-44.3581,31.519)">
                        <circle cx="127.784" cy="320.534" r="15.626" style="fill:none;stroke:rgb(199,40,28);stroke-width:0.5px;"/>
                    </g>
                    <g transform="matrix(0.4831,0,0,0.4831,86.5949,350.267)">
                        <path d="M0,7.356C-2.03,10.975 -6.611,12.26 -10.23,10.23C-13.848,8.199 -15.135,3.619 -13.104,0.001C-11.072,-3.618 -6.492,-4.905 -2.874,-2.873C0.744,-0.842 2.031,3.738 0,7.356M1.612,-6.612L-2.019,-8.649L-3.502,-6.471C-4.695,-6.832 -5.918,-6.97 -7.129,-6.903L-8.057,-9.37L-12.062,-8.245L-11.569,-5.656C-12.637,-5.082 -13.609,-4.329 -14.44,-3.399L-16.842,-4.485L-18.879,-0.855L-16.701,0.628C-17.061,1.819 -17.2,3.045 -17.134,4.255L-19.6,5.183L-18.475,9.188L-15.886,8.696C-15.313,9.764 -14.559,10.736 -13.628,11.567L-14.715,13.968L-11.085,16.005L-9.601,13.829C-8.412,14.187 -7.185,14.327 -5.975,14.26L-5.046,16.726L-1.042,15.601L-1.533,13.012C-0.467,12.439 0.509,11.681 1.337,10.755L3.738,11.842L5.775,8.211L3.598,6.727C3.959,5.535 4.097,4.311 4.029,3.102L6.496,2.173L5.371,-1.832L2.782,-1.339C2.209,-2.407 1.451,-3.382 0.525,-4.21L1.612,-6.612Z" style="fill:rgb(199,40,28);fill-rule:nonzero;"/>
                    </g>
                </g>
                <g class="icon mentor">
                    <g transform="matrix(1,0,0,1,-27.9694,82.6671)">
                        <circle cx="127.784" cy="320.534" r="15.626" style="fill:none;stroke:rgb(199,40,28);stroke-width:0.5px;"/>
                    </g>
                    <g transform="matrix(0.688274,-2.23366e-32,1.82754e-32,0.688274,-1388.67,-46.3211)">
                        <g transform="matrix(0.227615,7.38681e-33,-6.04376e-33,0.227615,1458.07,439.956)">
                            <path d="M3095.24,972.907C3079.47,972.686 3067.35,963.768 3061.94,958.69C3061.96,958.577 3061.96,958.537 3061.99,958.446C3066.34,944.033 3079.75,933.621 3095.51,933.713L3096.05,933.722C3111.8,934.065 3124.92,944.833 3128.85,959.373L3128.06,960.162C3119.49,968.212 3107.91,973.078 3095.24,972.907Z" style="fill:rgb(199,40,28);fill-rule:nonzero;"/>
                        </g>
                        <g transform="matrix(0.0138627,-0.999904,-0.999904,-0.0138627,2162.87,644.836)">
                            <path d="M-3.354,-3.307C-5.206,-3.308 -6.708,-1.806 -6.708,0.046C-6.708,1.9 -5.207,3.401 -3.354,3.401C-1.501,3.402 0.001,1.9 0.001,0.048C0.001,-1.806 -1.5,-3.308 -3.354,-3.307Z" style="fill:rgb(199,40,28);"/>
                        </g>
                    </g>
                </g>
                <g class="icon info">
                    <g transform="matrix(1,0,0,1,29.4626,82.6671)">
                        <circle cx="127.784" cy="320.534" r="15.626" style="fill:none;stroke:rgb(199,40,28);stroke-width:0.5px;"/>
                    </g>
                    <g transform="matrix(0.918477,1.27464e-17,-1.27464e-17,0.918477,23.0152,-134.003)">
                        <g transform="matrix(0.439005,-6.09242e-18,6.09242e-18,0.439005,-12.1873,552.904)">
                            <path d="M364.826,83.663L364.826,69.048L353.457,69.048L353.457,72.296L356.701,72.296L356.701,83.663L353.457,83.663L353.457,86.91L368.071,86.91L368.071,83.663L364.826,83.663Z" style="fill:rgb(199,40,28);fill-rule:nonzero;"/>
                        </g>
                        <g transform="matrix(0.439005,-6.09242e-18,6.09242e-18,0.439005,-12.1873,552.904)">
                            <path d="M364.012,61.335C364.012,63.802 362.013,65.801 359.546,65.801C357.08,65.801 355.081,63.802 355.081,61.335C355.081,58.869 357.08,56.87 359.546,56.87C362.013,56.87 364.012,58.869 364.012,61.335Z" style="fill:rgb(199,40,28);fill-rule:nonzero;"/>
                        </g>
                    </g>
                </g>
                <g class="icon bulb">
                    <g transform="matrix(1,0,0,1,46.7766,31.519)">
                        <circle cx="127.784" cy="320.534" r="15.626" style="fill:none;stroke:rgb(199,40,28);stroke-width:0.5px;"/>
                    </g>
                    <g transform="matrix(0.563851,7.825e-18,-7.825e-18,0.563851,91.0798,-13.4668)">
                        <g transform="matrix(0.200398,-2.78108e-18,2.78108e-18,0.200398,122.405,636.883)">
                            <path d="M127.179,2.51C109.051,2.937 94.309,17.795 94.016,35.926C93.862,45.461 97.636,54.111 103.825,60.372C107.424,64.014 109.536,68.867 109.88,73.976L109.912,74.455C110.187,78.537 113.578,81.708 117.669,81.708L138.329,81.708C142.42,81.708 145.812,78.537 146.087,74.455C146.446,69.118 148.613,64.029 152.346,60.198C158.312,54.076 161.988,45.713 161.988,36.489C161.988,17.444 146.326,2.058 127.179,2.51Z" style="fill:none;fill-rule:nonzero;stroke:rgb(199,40,28);stroke-width:3.1px;stroke-linecap:butt;stroke-miterlimit:2;"/>
                        </g>
                        <g transform="matrix(0.200398,-2.78108e-18,2.78108e-18,0.200398,122.405,636.883)">
                            <path d="M138.33,81.708L117.67,81.708C116.402,81.708 115.202,81.402 114.141,80.861L114.141,91.386C114.141,94.649 116.786,97.293 120.049,97.293L135.953,97.293C139.216,97.293 141.86,94.648 141.86,91.386L141.86,80.86C140.798,81.402 139.598,81.708 138.33,81.708Z" style="fill:rgb(199,40,28);fill-rule:nonzero;"/>
                        </g>
                        <g transform="matrix(0.200398,-2.78108e-18,2.78108e-18,0.200398,122.405,636.883)">
                            <path d="M135.952,97.292L120.048,97.292C119.478,97.292 118.929,97.207 118.407,97.056L118.407,102.154C118.407,105.654 121.244,108.491 124.744,108.491L131.255,108.491C134.755,108.491 137.592,105.654 137.592,102.154L137.592,97.056C137.071,97.207 136.522,97.292 135.952,97.292Z" style="fill:rgb(199,40,28);fill-rule:nonzero;"/>
                        </g>
                    </g>
                </g>
                <g class="icon tick">
                    <g transform="matrix(1,0,0,1,0.746601,-2.26768)">
                        <circle cx="127.784" cy="320.534" r="15.626" style="fill:none;stroke:rgb(199,40,28);stroke-width:0.5px;"/>
                    </g>
                    <g transform="matrix(0.564754,7.83754e-18,-7.83754e-18,0.564754,45.8029,-12.1726)">
                        <g transform="matrix(0.214978,-2.98341e-18,2.98341e-18,0.214978,-567.765,530.18)">
                            <path d="M3363.17,238.544C3365.25,243.691 3366.41,249.299 3366.45,255.163C3366.62,280.356 3346.27,300.995 3321.08,301.177L3320.75,301.177C3295.74,301.177 3275.24,280.821 3275.07,255.804C3274.89,230.611 3295.24,209.976 3320.44,209.79C3330.91,209.79 3340.55,213.266 3348.28,219.111" style="fill:none;fill-rule:nonzero;stroke:rgb(199,40,28);stroke-width:2.89px;stroke-linecap:butt;stroke-miterlimit:2;"/>
                        </g>
                        <g transform="matrix(1,6.16298e-33,-6.16298e-33,1,146.569,575.405)">
                            <path d="M0,15.807C-0.714,15.769 -2.282,15.159 -6.496,9.288C-6.926,8.688 -6.789,7.852 -6.189,7.421C-5.589,6.991 -4.753,7.128 -4.322,7.728C-2.963,9.62 -1.218,11.762 -0.206,12.71C1.65,9.66 7.002,1.214 7.262,0.804C7.658,0.181 8.483,-0.005 9.108,0.391C9.732,0.786 9.917,1.613 9.521,2.238C7.503,5.421 2.14,13.913 1.575,14.95C1.302,15.45 0.803,15.768 0.24,15.803C0.171,15.807 0.093,15.812 0,15.807" style="fill:rgb(199,40,28);fill-rule:nonzero;"/>
                        </g>
                    </g>
                    <text x="0" y="15" fill="red">I love SVG!</text>
                </g>
                <g>
                    <g transform="matrix(0.100214,0,0,0.100214,-156.522,245.045)">
                        <path d="M2721.43,826.447C2749.97,863.03 2794.47,886.573 2844.43,886.573C2894.38,886.573 2938.88,863.03 2967.42,826.447C3052.18,854.717 3124,911.381 3171.55,985.112C3156.51,1009.09 3147.82,1037.43 3147.82,1067.8C3147.82,1128.49 3182.57,1181.13 3233.26,1206.89C3230.93,1288.2 3203.6,1363.29 3158.7,1424.72C3149.71,1423.1 3140.44,1422.26 3130.97,1422.26C3050.47,1422.26 2984.13,1483.4 2975.91,1561.74C2934.83,1576.51 2890.56,1584.56 2844.43,1584.56C2798.29,1584.56 2754.02,1576.51 2712.94,1561.74C2704.72,1483.4 2638.39,1422.26 2557.88,1422.26C2548.41,1422.26 2539.14,1423.1 2530.15,1424.72C2486.03,1364.33 2458.88,1290.8 2455.74,1211.14C2511.31,1187.29 2550.26,1132.05 2550.26,1067.8C2550.26,1034.44 2539.77,1003.52 2521.9,978.145C2569.44,907.804 2639.37,853.817 2721.43,826.447Z" style="fill:none;stroke:rgb(199,40,28);stroke-width:2.5px;"/>
                    </g>
                    <g>
                        <g transform="matrix(0.126768,0,0,0.126768,-292.645,285.879)">
                            <path d="M3445.34,246.502C3530.52,274.328 3603.03,330.286 3651.89,403.394" style="fill:none;stroke:rgb(199,40,28);stroke-width:7.91px;stroke-linecap:butt;"/>
                        </g>
                        <g transform="matrix(0.126768,0,0,0.126768,-292.645,285.879)">
                            <path d="M3718,640.933C3714.53,718.645 3688.62,790.558 3646.61,850.333" style="fill:none;stroke:rgb(199,40,28);stroke-width:7.91px;stroke-linecap:butt;"/>
                        </g>
                        <g transform="matrix(0.126768,0,0,0.126768,-292.645,285.879)">
                            <path d="M3449.4,998.172C3409.53,1011.68 3366.81,1019.01 3322.4,1019.01C3277.99,1019.01 3235.28,1011.68 3195.41,998.172" style="fill:none;stroke:rgb(199,40,28);stroke-width:7.91px;stroke-linecap:butt;"/>
                        </g>
                        <g transform="matrix(0.126768,0,0,0.126768,-292.645,285.879)">
                            <path d="M2998.2,850.333C2955.77,789.965 2929.77,717.239 2926.71,638.661" style="fill:none;stroke:rgb(199,40,28);stroke-width:7.91px;stroke-linecap:butt;"/>
                        </g>
                        <g transform="matrix(0.126768,0,0,0.126768,-292.645,285.879)">
                            <path d="M2993.99,401.805C3042.81,329.493 3114.88,274.138 3199.47,246.502" style="fill:none;stroke:rgb(199,40,28);stroke-width:7.91px;stroke-linecap:butt;"/>
                        </g>
                    </g>
                </g>
                <g class='generali-lion' transform="matrix(0.464817,0,0,0.464817,111.2,350.913)">
                    <path d="M61.028,39.865L62.616,39.282C64.874,38.367 65.208,37.784 65.041,36.287L65.041,30.296C66.713,34.623 68.385,37.618 71.645,37.618C72.063,37.618 72.565,37.535 73.066,37.452L74.32,37.202L73.401,36.204C72.816,35.621 72.565,35.122 72.23,34.539C72.063,34.29 71.98,34.04 71.812,33.791C71.06,32.542 69.221,32.127 67.716,32.792C67.047,31.461 66.378,29.714 65.542,27.55L65.375,27.134C65.208,26.801 65.124,26.469 64.957,26.136L64.957,26.052C64.456,24.888 63.87,23.806 63.285,22.724C62.7,21.726 62.115,20.894 61.446,20.145C59.69,18.148 57.433,16.9 54.674,16.401C52.752,16.068 51.414,15.985 49.658,15.902C49.324,15.902 48.906,15.902 48.572,15.818C47.819,15.735 46.231,15.652 44.642,15.486C43.556,15.402 42.552,15.319 41.716,15.236C41.8,14.986 41.8,14.737 41.8,14.487C41.8,14.154 41.8,13.822 41.716,13.572L52.752,13.572C55.594,13.572 57.684,12.324 58.854,9.828C61.697,9.828 63.703,8.496 64.957,6.083L65.375,6.083C68.301,6.083 70.391,4.752 71.645,2.09L72.063,1.341L34.778,1.341C32.353,1.341 30.263,2.922 29.427,5.418L29.427,5.501C28.758,3.754 27.672,2.256 26.167,1.341C24.077,0.093 21.736,-0.323 19.897,0.259C19.312,0.426 18.643,0.675 18.141,1.008C17.723,1.341 17.054,1.757 16.636,2.339C16.135,2.922 15.717,3.67 15.382,4.336C15.132,4.503 14.964,4.669 14.881,4.835L14.463,5.667L14.463,5.751C13.961,6.915 13.292,7.748 12.791,8.413C12.289,8.996 12.289,9.578 12.289,9.911C12.373,10.327 12.54,10.66 12.791,10.909C12.624,11.159 12.54,11.492 12.54,11.741C12.54,12.74 13.376,13.489 14.463,13.489C15.215,13.489 15.884,13.156 16.553,12.657C16.804,12.49 17.556,11.991 17.807,11.991C18.141,11.991 18.392,12.241 18.392,12.573C18.392,13.405 17.389,13.822 16.636,13.822L15.132,13.988C14.045,14.071 13.543,14.653 13.543,15.153C13.543,15.652 13.794,15.985 13.961,16.151L14.045,16.234L14.463,16.567L12.707,19.23C11.537,18.148 10.199,17.566 9.029,17.483C8.276,17.483 7.608,17.649 7.106,18.148C6.939,18.315 6.855,18.398 6.772,18.564C5.518,18.564 4.514,19.23 4.013,19.979C3.428,20.811 3.678,22.225 4.347,23.307L0.167,24.472L0.167,43.775L74.571,43.775L74.571,39.948L61.028,39.948L61.028,39.865ZM70.642,34.623C70.809,34.872 70.893,35.122 71.06,35.288C71.227,35.538 71.394,35.788 71.562,36.12C70.391,36.037 69.472,35.371 68.719,34.207C69.388,33.874 70.308,34.123 70.642,34.623ZM54.507,18.148C56.932,18.564 58.854,19.646 60.359,21.31C60.694,21.643 60.944,22.059 61.279,22.475C57.266,21.976 55.845,21.393 53.588,17.982C53.922,17.982 54.173,18.065 54.507,18.148ZM52.752,12.324L45.144,12.324C45.813,11.741 46.314,10.993 46.732,10.16L57.015,10.16C56.179,11.658 54.758,12.324 52.752,12.324ZM58.771,8.663L51.163,8.663C51.832,8.08 52.417,7.331 52.835,6.416L63.118,6.416C62.282,7.914 60.861,8.663 58.771,8.663ZM59.356,2.922L69.555,2.922C68.552,4.253 67.214,4.919 65.292,4.919L57.684,4.919C58.353,4.336 58.938,3.67 59.356,2.922ZM17.89,3.254C18.141,2.922 18.559,2.589 18.977,2.256C19.312,2.006 19.813,1.757 20.315,1.674C21.067,1.507 21.903,1.507 22.739,1.674L19.98,3.338C19.646,3.338 19.312,3.254 18.977,3.254C18.476,3.254 18.058,3.254 17.723,3.338C17.807,3.338 17.807,3.338 17.89,3.254ZM14.714,15.236C14.714,15.153 14.797,15.07 14.881,15.07L16.218,15.153C17.807,15.07 19.479,14.404 19.646,12.74C19.646,11.575 18.81,10.493 17.723,10.493C17.138,10.493 16.386,10.909 15.633,11.409C15.132,11.741 14.714,11.991 14.463,11.991C14.296,11.991 14.128,11.825 14.128,11.741L14.128,11.658L14.964,10.493L14.212,9.994C14.045,9.911 13.794,9.661 13.794,9.578C13.794,9.495 13.878,9.412 13.878,9.328C14.212,8.996 14.546,8.58 14.881,7.997C15.132,7.664 15.215,7.498 15.55,7.498C15.884,7.498 16.218,7.748 16.218,8.164C16.218,8.413 16.469,8.58 16.804,8.58C17.138,8.58 17.305,8.33 17.472,8.164C17.472,8.164 18.225,7.498 17.807,7.165C17.389,6.832 15.55,7.581 16.051,5.917L16.218,5.667C16.386,5.418 17.305,4.752 19.061,4.752C19.395,4.752 19.73,4.752 20.148,4.835L20.398,4.835L24.244,2.506C24.244,2.589 24.328,2.672 24.328,2.672C24.495,3.837 23.826,5.168 22.656,5.834L22.154,6.083L22.488,7.831C21.485,8.164 20.816,8.912 20.816,9.828C20.816,10.16 20.9,10.577 20.984,10.993C21.067,11.575 21.234,12.157 21.234,12.74C21.234,14.57 18.726,15.735 16.636,15.652L16.553,15.652C16.469,15.652 15.132,15.569 14.797,15.319C14.714,15.402 14.714,15.319 14.714,15.236ZM5.183,20.894C5.518,20.395 6.186,20.062 7.022,20.145L7.691,20.228L7.942,19.646C8.026,19.479 8.109,19.313 8.193,19.23C8.36,19.063 8.694,18.98 9.029,18.98C9.948,18.98 11.119,19.646 12.038,20.644C12.373,20.977 12.707,21.476 12.958,21.892C13.042,21.976 13.042,22.059 13.125,22.142C13.209,22.225 13.292,22.392 13.292,22.392C13.292,22.475 13.794,23.14 13.794,23.224C14.128,22.808 14.463,22.308 14.714,21.892L14.714,21.809C14.63,21.643 14.463,21.393 14.379,21.227L14.296,21.144C14.296,21.144 14.212,21.06 14.212,20.977C14.128,20.811 13.961,20.561 13.878,20.478L15.884,17.316C16.386,17.399 16.804,17.399 17.054,17.399L17.138,17.399C19.98,17.399 22.906,15.735 22.906,13.073L22.906,12.989C22.906,12.241 22.739,11.575 22.656,10.993C22.572,10.577 22.488,10.244 22.488,10.077C22.488,9.744 22.906,9.412 23.492,9.412L24.411,9.412L23.993,7.082C25.247,6.167 26.083,4.586 26,3.171C27.421,4.253 28.34,6.083 28.508,7.997C28.591,8.58 28.424,9.328 28.257,10.16L28.173,10.493C27.839,11.825 27.337,13.239 27.086,13.905L26.836,14.487L27.421,14.82C28.424,15.402 29.093,15.818 29.093,17.15C29.093,18.731 27.672,19.895 26.334,20.145L24.411,20.478L26,21.56C26.501,21.892 26.836,22.475 26.836,23.057C26.836,24.056 26,24.805 24.996,24.805L24.411,24.805L24.244,25.304C23.659,27.134 23.074,28.049 21.067,28.299L21.067,25.553L20.984,23.806L19.73,25.054C19.312,25.47 18.559,25.803 17.723,25.969L17.723,24.472L8.945,22.142L5.852,22.974C5.183,22.308 5.016,21.144 5.183,20.894ZM2.675,39.865L9.029,38.2L15.382,39.865L2.675,39.865ZM16.218,38.533L8.945,36.62L1.672,38.533L1.672,25.637L8.945,23.723L16.218,25.637L16.218,38.533ZM19.646,36.037C18.977,36.952 18.894,38.284 19.395,39.865L17.807,39.865L17.807,27.55C18.392,27.467 18.977,27.301 19.562,27.051C19.562,27.55 19.479,28.049 19.395,28.549C19.395,28.715 19.312,28.798 19.312,28.965L19.144,29.88L20.064,29.88C21.402,29.88 22.405,29.63 23.241,29.298L23.241,34.456C23.241,34.623 23.157,34.706 22.99,34.706L22.739,34.706C21.402,34.623 20.231,35.122 19.646,36.037ZM36.366,36.37C35.781,37.036 35.279,38.117 35.614,39.865L26.167,39.865C27.17,39.781 27.922,39.532 28.424,39.032C29.009,38.367 29.093,37.535 29.093,36.869C29.093,36.786 29.176,36.62 29.678,36.37L30.514,36.037L30.012,35.288C29.176,34.04 29.594,31.378 29.845,29.88L29.929,29.88C33.106,29.88 35.196,29.214 37.369,28.549C37.954,28.382 38.54,28.216 39.125,27.966C39.125,27.966 39.794,27.8 40.63,27.55L43.723,32.626L43.723,32.709C44.057,33.125 44.057,33.458 43.472,34.04L41.967,35.704L39.459,35.205C38.372,35.039 37.118,35.538 36.366,36.37ZM37.202,39.865C36.951,38.783 37.035,37.951 37.536,37.368C38.038,36.786 38.707,36.703 39.292,36.703L42.218,37.202L42.72,37.202L44.81,34.955C45.144,34.539 46.231,33.291 45.144,31.71L42.385,27.217C42.803,27.134 43.305,27.134 43.723,27.134C43.723,27.134 45.144,27.134 46.649,27.966C46.816,28.382 47.15,28.965 47.401,29.63C47.986,30.795 48.739,32.293 48.906,32.875C48.99,33.042 49.157,33.624 48.488,34.373L43.221,39.948L37.202,39.948L37.202,39.865ZM55.26,39.865L45.228,39.865L49.491,35.371C50.327,34.456 50.662,33.375 50.244,32.376C50.076,31.794 49.491,30.629 48.906,29.381C50.578,30.13 53.17,30.878 58.436,31.294C59.105,31.378 59.272,31.544 59.356,32.127L59.607,34.373L56.848,34.955C55.928,35.122 55.176,35.704 54.842,36.62C54.507,37.618 54.674,38.783 55.26,39.865ZM56.346,37.202C56.514,36.786 56.764,36.536 57.182,36.453L61.279,35.538L60.944,31.877L60.944,31.794C60.861,31.294 60.526,29.88 58.603,29.714C51.247,29.131 49.575,28.049 47.736,26.885L47.652,26.801C45.729,25.553 43.806,25.553 43.639,25.553C41.549,25.553 38.958,26.385 38.707,26.469C38.038,26.635 37.453,26.885 36.868,27.051C34.527,27.8 32.604,28.465 29.26,28.299L28.675,28.299L28.508,28.882C28.424,29.298 27.421,33.042 28.34,35.371C27.504,36.037 27.504,36.703 27.504,36.869C27.504,37.701 27.337,37.868 27.254,37.951C26.836,38.367 25.582,38.367 24.495,38.367L24.077,38.367L23.826,38.7C23.157,39.615 21.736,39.865 20.816,39.615C20.398,38.367 20.398,37.452 20.816,36.869C21.318,36.204 22.238,36.12 22.656,36.12L22.906,36.12C23.91,36.12 24.662,35.288 24.662,34.373L24.662,27.8C24.996,27.384 25.164,26.801 25.414,26.219C27.003,25.969 28.257,24.638 28.257,22.974C28.257,22.308 28.09,21.726 27.755,21.227C29.26,20.478 30.514,19.063 30.514,17.15C30.514,15.236 29.511,14.321 28.591,13.822C28.842,13.073 29.26,11.825 29.594,10.493L30.848,5.917C31.434,4.087 32.938,2.922 34.694,2.922L57.433,2.922C56.43,4.253 55.092,4.919 53.17,4.919L39.543,4.919L38.79,6.416L51.163,6.416C50.16,7.914 48.739,8.663 46.732,8.663L37.787,8.663L37.035,10.16L44.977,10.16C43.974,11.658 42.636,12.324 40.63,12.324L35.781,12.324L35.028,13.822L40.128,13.822C40.212,13.905 40.295,14.154 40.295,14.737C40.295,15.735 39.459,16.484 38.456,16.484C38.122,16.484 37.787,16.401 37.286,16.151C37.035,16.068 36.868,15.985 36.617,15.902L35.446,16.983C35.697,17.066 35.864,17.15 36.115,17.233C37.118,17.649 37.704,17.898 38.456,17.898C39.376,17.898 40.212,17.483 40.88,16.9C41.716,16.983 43.138,17.066 44.559,17.15C46.231,17.316 47.736,17.399 48.572,17.483C48.99,17.483 49.324,17.483 49.742,17.566C50.411,17.566 51.08,17.649 51.665,17.649C54.758,22.641 56.346,23.307 62.365,24.056C62.783,24.805 63.202,25.637 63.536,26.469L63.536,36.952C63.285,37.202 62.365,37.618 62.115,37.701L57.015,39.781C56.346,38.866 56.096,37.951 56.346,37.202ZM14.63,27.633L9.781,26.385L9.781,27.966L14.63,29.214L14.63,27.633ZM3.344,29.214L8.193,27.966L8.193,26.385L3.344,27.633L3.344,29.214ZM3.344,32.376L8.193,31.128L8.193,29.547L3.344,30.795L3.344,32.376ZM14.63,30.795L9.781,29.547L9.781,31.128L14.63,32.376L14.63,30.795ZM14.63,33.957L9.781,32.709L9.781,34.29L14.63,35.538L14.63,33.957ZM3.344,35.538L8.193,34.29L8.193,32.709L3.344,33.957L3.344,35.538ZM68.301,55.341C67.883,58.835 66.964,59.334 64.456,59.334L64.288,59.334L64.288,48.185L65.877,48.185L65.877,47.603L60.694,47.603L60.694,48.185L62.282,48.185L62.282,59.418L61.028,59.418L56.43,47.27L55.761,47.27C55.761,47.27 51.916,58.253 51.916,58.336C51.916,58.336 51.665,59.251 50.996,59.418C50.411,59.418 50.494,59.168 50.494,59.002L50.494,56.838C50.494,56.256 50.411,55.008 49.909,54.425C49.24,53.76 48.154,53.76 48.154,53.676C48.154,53.676 50.996,53.094 50.996,50.432C50.996,48.518 49.658,47.603 47.485,47.519L41.298,47.519L41.298,48.102L42.887,48.102L42.887,59.334L41.298,59.334L41.298,59.917L46.398,59.917L46.398,59.334L44.81,59.334L44.81,53.926L46.9,53.926C50.578,54.259 46.231,59.917 51.08,59.917L54.089,59.917L54.089,59.334C53.922,59.334 52.835,59.334 52.752,58.586C52.668,58.003 53.504,56.006 53.504,56.006L57.684,56.006C57.684,56.006 58.938,59.334 59.022,59.334L57.6,59.334L57.6,59.917L68.886,59.917L68.886,55.341L68.301,55.341ZM46.816,53.344L44.81,53.344L44.81,48.185L47.401,48.185C48.906,48.435 48.99,50.182 48.99,50.681C48.99,52.012 48.404,53.344 46.816,53.344ZM53.838,55.507L55.678,50.182L57.6,55.507L53.838,55.507ZM35.112,48.102C38.289,48.102 39.543,47.935 40.044,51.846L40.379,51.846L40.379,47.519L27.672,47.519L27.672,48.102L28.006,48.102C28.424,48.102 29.511,48.102 29.594,49.1L29.594,56.256L23.659,47.519L20.398,47.519L20.398,48.102L20.9,48.102C21.569,48.102 22.405,48.102 22.488,49.1L22.488,58.253C22.488,59.168 21.151,59.501 20.566,59.501L20.566,59.917L24.996,59.917L24.996,59.501C24.411,59.501 23.074,59.168 23.074,58.253L23.074,50.182C25.414,53.51 29.845,59.917 29.929,59.917L30.18,59.917L30.18,49.1C30.263,48.185 31.266,48.102 31.768,48.102L33.189,48.102L33.189,59.334L31.517,59.334L31.517,59.917L40.546,59.917L40.546,55.341L40.128,55.341C39.71,58.835 38.79,59.334 36.282,59.334L35.112,59.334L35.112,53.926L35.781,53.926C36.868,53.926 37.536,54.592 37.787,56.505L38.205,56.505L38.205,50.847L37.787,50.847C37.787,50.847 37.704,53.26 35.781,53.26L35.196,53.26L35.196,48.102L35.112,48.102ZM74.488,48.185L74.488,47.519L69.388,47.519L69.388,48.185L70.976,48.185L70.976,59.334L69.388,59.334L69.388,59.917L74.488,59.917L74.488,59.334L72.816,59.334L72.816,48.185L74.488,48.185ZM14.296,53.344L14.296,48.185C17.472,48.185 18.643,48.019 19.228,51.929L19.562,51.929L19.562,47.603L10.784,47.603L10.784,48.185L12.289,48.185L12.289,59.418L10.617,59.418L10.617,60L19.646,60L19.646,55.424L19.228,55.424C18.81,58.918 17.89,59.418 15.382,59.418L14.212,59.418L14.212,54.009L14.881,54.009C15.968,54.009 16.636,54.675 16.887,56.589L17.305,56.589L17.305,50.931L16.887,50.931C16.887,50.931 16.804,53.344 14.881,53.344L14.296,53.344ZM10.701,53.427L5.768,53.427L5.768,54.009L7.44,54.009L7.44,58.003C7.19,59.002 5.601,59.418 5.183,59.418C2.006,59.418 2.257,54.841 2.257,53.593C2.257,52.512 2.174,47.769 5.183,47.769C7.357,47.769 8.444,49.849 8.862,51.763L9.196,51.763L9.196,47.27C9.196,47.27 7.691,48.351 7.691,48.268C7.691,48.268 7.022,47.27 5.1,47.27C1.421,47.27 0,50.931 0,53.51C0,55.84 1.087,59.917 5.1,59.917C6.354,59.917 7.19,59.251 7.691,58.586L9.28,59.834L9.28,53.926L10.617,53.926L10.617,53.427L10.701,53.427Z" style="fill:rgb(199,40,28);"/>
                </g>
            </g>
        </g>
    </g>
</svg>
